<?xml version="1.0" standalone="no"?>
<!DOCTYPE svg PUBLIC "-//W3C//DTD SVG 20010904//EN"
 "http://www.w3.org/TR/2001/REC-SVG-20010904/DTD/svg10.dtd">
<svg version="1.0" xmlns="http://www.w3.org/2000/svg"
 width="1280.000000pt" height="1280.000000pt" viewBox="0 0 1280.000000 1280.000000"
 preserveAspectRatio="xMidYMid meet">

<g transform="translate(0.000000,1280.000000) scale(0.100000,-0.100000)"
fill="#000000" stroke="none">
<path d="M6510 12307 c-30 -4 -98 -10 -150 -13 -52 -2 -99 -9 -104 -14 -6 -6
-47 -10 -92 -10 -45 0 -84 -4 -86 -9 -1 -4 -43 -11 -92 -15 -49 -4 -94 -10
-100 -14 -6 -3 -51 -10 -101 -13 -49 -4 -119 -15 -155 -24 -36 -10 -82 -19
-102 -22 -21 -3 -38 -9 -38 -14 0 -5 -16 -9 -35 -9 -19 0 -35 -4 -35 -9 0 -5
-13 -12 -30 -16 -16 -4 -30 -11 -30 -16 0 -5 -20 -9 -45 -9 -25 0 -45 -4 -45
-8 0 -10 -98 -42 -128 -42 -12 0 -22 -4 -22 -10 0 -5 -8 -10 -18 -10 -9 0 -22
-10 -27 -22 -6 -13 -20 -24 -32 -26 -13 -2 -23 -7 -23 -12 0 -5 -13 -11 -30
-15 -16 -4 -30 -11 -30 -16 0 -5 -13 -9 -29 -9 -16 0 -31 -3 -33 -7 -4 -11
-67 -43 -84 -43 -8 0 -14 -4 -14 -10 0 -5 -13 -10 -30 -10 -16 0 -30 -4 -30
-10 0 -5 -7 -10 -15 -10 -8 0 -15 -4 -15 -10 0 -5 -7 -7 -15 -4 -8 4 -15 1
-15 -5 0 -6 -7 -11 -15 -11 -8 0 -15 -4 -15 -9 0 -5 -13 -12 -30 -16 -16 -4
-30 -11 -30 -16 0 -5 -7 -9 -15 -9 -8 0 -15 -4 -15 -10 0 -5 -5 -10 -10 -10
-6 0 -21 -11 -34 -25 -13 -14 -29 -25 -36 -25 -7 0 -23 -11 -36 -25 -13 -14
-28 -25 -34 -25 -5 0 -10 -4 -10 -10 0 -5 -13 -10 -29 -10 -17 0 -31 -6 -35
-16 -3 -8 -10 -12 -16 -9 -5 3 -10 -1 -10 -9 0 -9 -9 -16 -20 -16 -11 0 -20
-4 -20 -8 0 -5 -18 -17 -40 -28 -22 -10 -40 -22 -40 -26 0 -5 -6 -8 -12 -8 -7
-1 -22 -12 -33 -26 -40 -50 -64 -74 -75 -74 -5 0 -10 -9 -10 -20 0 -11 -7 -20
-15 -20 -8 0 -15 -7 -15 -15 0 -8 -7 -15 -15 -15 -9 0 -15 -9 -15 -25 0 -17
-6 -25 -17 -25 -15 0 -16 -2 -3 -10 10 -6 11 -10 3 -10 -7 0 -13 -6 -13 -13 0
-15 -66 -87 -80 -87 -5 0 -12 -10 -16 -22 -7 -23 -19 -40 -46 -66 -10 -9 -18
-29 -18 -45 0 -16 -7 -35 -15 -43 -8 -9 -15 -26 -15 -40 0 -15 -6 -24 -15 -24
-10 0 -15 -11 -15 -35 0 -24 -5 -35 -15 -35 -11 0 -15 -12 -15 -50 0 -38 -4
-50 -15 -50 -8 0 -15 -6 -15 -14 0 -10 8 -13 25 -10 14 2 34 0 43 -5 10 -6 12
-11 5 -11 -7 0 -13 -9 -13 -20 0 -11 -7 -23 -15 -26 -9 -4 -15 -19 -15 -35 0
-19 -5 -29 -15 -29 -12 0 -15 -15 -15 -75 0 -52 -4 -76 -14 -82 -7 -4 -16 -28
-19 -53 -3 -24 -11 -46 -16 -48 -15 -5 -14 -23 2 -19 19 3 22 -77 3 -96 -21
-20 -21 -57 0 -57 8 0 12 -4 9 -10 -4 -6 6 -10 23 -10 40 0 44 -8 24 -42 -16
-28 -16 -30 1 -39 21 -12 23 -39 2 -39 -22 0 -18 -15 9 -36 14 -10 23 -21 20
-26 -3 -4 0 -8 5 -8 6 0 11 -21 11 -50 0 -38 4 -50 15 -50 9 0 15 -9 15 -25 0
-16 6 -25 15 -25 9 0 15 -9 15 -25 0 -14 -4 -25 -10 -25 -5 0 -10 -9 -10 -20
0 -11 5 -20 10 -20 6 0 10 -16 10 -35 0 -24 5 -35 15 -35 18 0 18 -3 19 -106
1 -57 5 -85 16 -97 8 -9 21 -23 28 -31 7 -9 12 -44 12 -85 0 -38 4 -72 9 -75
11 -7 -10 -56 -24 -56 -5 0 -5 -4 2 -8 6 -4 13 -16 15 -27 3 -18 -4 -20 -86
-25 -57 -4 -91 -10 -94 -18 -2 -7 -10 -12 -18 -12 -26 0 -14 -25 12 -27 30 -1
47 -22 33 -39 -10 -12 -59 -7 -59 7 0 11 -30 12 -31 2 -3 -29 -9 -47 -18 -53
-14 -8 -13 -310 0 -310 9 0 14 41 11 89 -1 14 7 30 18 38 13 9 20 26 20 48 0
26 3 33 15 29 11 -5 15 1 15 25 0 19 6 34 15 37 10 4 15 20 15 45 0 37 2 39
30 39 23 0 30 4 30 20 0 11 7 20 15 20 10 0 15 -10 15 -33 0 -18 7 -43 16 -55
10 -14 11 -22 3 -22 -6 0 -9 -6 -6 -14 3 -7 0 -19 -6 -25 -8 -8 -7 -11 6 -11
11 0 17 -8 17 -25 0 -13 7 -28 16 -33 12 -6 15 -18 12 -36 -3 -14 -1 -26 3
-26 5 0 9 -18 9 -41 0 -24 4 -38 10 -34 6 4 10 -22 10 -69 0 -42 -4 -76 -9
-76 -5 0 -11 -14 -15 -31 -4 -22 -14 -34 -36 -42 -16 -6 -30 -17 -30 -25 0 -7
-7 -15 -15 -18 -8 -4 -15 -14 -15 -24 0 -10 -5 -20 -11 -22 -6 -2 -13 -24 -16
-48 -4 -40 -1 -49 26 -78 17 -18 31 -36 31 -40 0 -4 14 -8 30 -9 29 -2 106
-63 80 -63 -11 0 -5 -9 33 -51 9 -10 17 -28 17 -40 0 -15 5 -19 15 -15 9 3 15
0 15 -8 0 -7 7 -13 15 -13 10 0 15 11 15 33 0 19 6 34 15 38 11 4 15 -2 15
-23 0 -16 -6 -32 -12 -34 -10 -4 -10 -6 0 -6 8 -1 12 -23 12 -75 0 -73 0 -74
29 -79 20 -4 31 -14 35 -32 7 -29 0 -49 -15 -40 -5 4 -12 -1 -15 -9 -3 -9 -12
-16 -20 -16 -8 0 -14 -4 -14 -10 0 -5 18 -10 39 -10 22 0 43 5 46 10 3 6 19
10 36 10 24 0 29 4 29 24 0 14 -4 27 -9 30 -5 3 -12 18 -16 33 -3 15 -12 31
-18 35 -7 4 -7 11 3 23 10 12 10 19 3 23 -6 4 -15 19 -18 35 -4 15 -11 25 -15
22 -4 -3 -10 4 -13 15 -3 13 0 20 10 20 8 0 13 3 11 8 -2 4 -10 21 -18 37 -8
17 -20 34 -27 38 -7 4 -13 15 -13 22 0 22 -17 18 -23 -5 -8 -29 -37 -26 -37 5
0 18 -4 23 -15 19 -9 -4 -15 0 -15 10 0 9 -6 16 -14 16 -9 0 -16 12 -18 28 -2
15 -8 26 -15 25 -7 -2 -13 4 -13 12 0 7 -7 18 -16 23 -11 6 -14 21 -12 53 3
37 7 44 26 47 26 4 62 -30 62 -60 0 -10 6 -17 12 -15 7 1 14 -8 16 -20 2 -13
10 -23 18 -23 11 0 14 16 14 70 0 69 -15 96 -23 43 -3 -20 -4 -16 -6 14 0 23
4 45 9 48 6 3 10 11 10 16 0 6 -4 7 -10 4 -5 -3 -10 3 -10 13 0 11 7 22 15 26
12 4 15 23 15 85 0 57 4 82 14 88 7 4 16 27 19 50 3 23 12 50 21 58 9 9 16 25
16 36 0 10 4 19 9 19 5 0 12 11 15 25 4 14 10 23 15 21 9 -6 21 50 21 102 0
17 4 32 9 32 5 0 12 30 16 68 4 37 13 86 21 110 8 23 14 65 14 92 0 38 4 50
15 50 11 0 15 12 15 45 0 25 3 44 8 43 14 -4 52 23 52 38 0 8 7 17 15 20 8 4
15 17 15 29 0 20 7 25 42 32 37 7 44 13 48 37 4 22 13 32 35 39 33 11 47 26
38 40 -3 5 4 6 15 3 28 -9 40 14 16 31 -18 13 -18 15 -1 24 26 15 21 39 -8 39
-18 0 -25 5 -25 20 0 15 7 20 25 20 14 0 25 5 25 10 0 6 6 10 13 10 18 0 19
57 1 64 -11 4 -12 10 -4 26 5 11 15 29 20 40 13 26 13 31 -2 28 -8 -2 -13 7
-13 20 0 13 -9 30 -19 38 -17 12 -18 17 -6 39 7 14 19 25 27 25 21 0 15 16
-12 28 -14 6 -25 17 -25 23 0 15 47 59 54 51 3 -3 6 12 7 34 0 21 3 33 6 27 8
-22 23 -14 23 11 0 13 -6 27 -12 30 -7 3 -1 3 14 0 23 -5 28 -2 33 19 5 19 11
23 32 19 24 -4 25 -3 18 26 -5 25 -3 31 14 37 23 7 38 44 22 54 -6 4 1 14 19
24 16 10 35 27 40 38 6 10 20 19 30 19 17 0 18 3 8 19 -9 15 -16 17 -30 10
-12 -6 -18 -6 -18 1 0 5 5 10 10 10 6 0 10 7 10 16 0 8 5 12 10 9 6 -3 13 1
16 9 3 9 12 16 20 16 8 0 14 4 14 9 0 5 16 18 36 30 39 23 37 41 -4 42 l-27 1
30 10 c17 5 40 10 52 9 12 0 39 7 60 16 21 9 42 16 46 15 5 -2 7 3 5 10 -3 7
-12 13 -21 13 -8 0 -19 4 -23 8 -4 4 0 7 9 7 10 0 17 5 17 11 0 7 17 9 53 5
126 -15 297 -18 297 -6 0 9 13 10 48 5 49 -6 111 -8 172 -5 61 4 205 -12 212
-24 5 -8 11 -7 20 2 13 13 64 16 72 4 3 -5 110 -9 238 -11 137 -1 234 -6 236
-11 5 -12 122 -13 122 -1 0 5 -9 11 -21 14 -12 3 -19 11 -17 19 6 16 40 26 96
27 23 1 42 6 42 11 0 6 9 10 20 10 22 0 27 -16 8 -23 -7 -3 12 -3 42 -1 30 2
56 8 58 14 5 15 172 13 172 -2 0 -9 3 -10 8 -2 10 16 72 25 111 18 26 -6 32
-11 27 -27 -4 -17 -1 -19 29 -14 19 3 37 2 40 -4 8 -12 48 -5 53 9 7 22 35 14
29 -8 -3 -11 -1 -18 3 -15 5 3 11 -1 14 -7 5 -10 7 -10 12 0 3 6 15 12 25 12
11 0 18 4 15 8 -5 9 28 42 43 42 5 0 11 -7 15 -15 3 -8 12 -15 20 -15 7 0 16
-9 19 -20 4 -16 14 -20 52 -20 28 0 44 4 40 10 -4 6 7 10 24 10 17 0 31 -4 31
-10 0 -5 14 -10 30 -10 17 0 30 -4 30 -9 0 -5 32 -24 70 -42 39 -18 70 -36 70
-41 0 -4 11 -8 25 -8 16 0 25 -6 25 -16 0 -9 5 -12 12 -8 6 4 17 -1 24 -11 8
-10 20 -15 29 -11 26 10 52 -11 66 -51 6 -20 20 -46 30 -56 10 -11 21 -39 25
-63 3 -24 10 -41 15 -38 5 3 13 -6 19 -20 11 -30 18 -32 35 -9 11 15 13 15 24
-5 16 -30 65 -54 96 -46 19 5 25 2 25 -9 0 -9 6 -17 13 -20 6 -2 2 -2 -10 0
-13 2 -23 -2 -23 -8 0 -6 16 -9 39 -8 47 4 80 -21 82 -60 1 -25 2 -25 8 4 l8
30 13 -45 c7 -25 12 -53 11 -62 -1 -10 3 -18 8 -18 6 0 11 -8 11 -17 0 -14 -2
-15 -9 -5 -7 11 -10 10 -15 -3 -8 -22 4 -41 15 -24 6 10 9 8 9 -9 0 -12 6 -21
12 -20 17 4 28 -100 12 -112 -6 -6 -14 -7 -17 -3 -4 3 -7 2 -7 -4 0 -6 14 -13
30 -16 30 -7 42 -27 15 -27 -8 0 -12 -6 -9 -13 2 -7 -4 -22 -16 -32 -11 -10
-20 -15 -20 -10 0 4 -7 2 -15 -5 -8 -7 -15 -16 -15 -21 0 -5 7 -9 15 -9 8 0
15 5 15 10 0 6 9 10 19 10 11 0 23 -4 26 -10 4 -6 -5 -10 -19 -10 -16 0 -26
-6 -26 -15 0 -8 9 -15 20 -15 11 0 20 -4 20 -9 0 -5 13 -11 28 -14 25 -5 29
-11 30 -43 1 -21 -3 -43 -9 -50 -16 -19 -1 -52 29 -68 22 -12 29 -12 48 1 15
9 24 11 29 4 3 -6 0 -11 -8 -11 -25 0 -37 -24 -29 -55 7 -23 10 -26 15 -12 3
9 15 17 25 17 22 0 48 -46 29 -53 -8 -2 -8 -5 1 -11 7 -4 12 -2 12 3 0 6 7 11
16 11 9 0 23 8 30 18 12 16 13 16 19 -1 7 -15 9 -16 19 -2 9 13 13 11 23 -10
6 -14 8 -23 3 -20 -30 18 -15 -90 18 -127 12 -15 13 -18 1 -18 -9 -1 -6 -7 9
-19 16 -15 22 -30 22 -63 0 -23 7 -52 15 -62 10 -13 15 -43 15 -87 0 -47 5
-72 15 -83 10 -10 15 -35 15 -75 0 -37 5 -65 14 -73 7 -8 17 -33 21 -56 4 -23
11 -42 16 -42 5 0 9 -9 9 -19 0 -11 7 -27 16 -35 8 -9 11 -16 5 -16 -5 0 -4
-12 5 -27 7 -16 14 -47 14 -71 0 -26 4 -41 10 -37 6 4 10 -13 10 -44 0 -27 -4
-51 -9 -53 -5 -1 -11 -36 -13 -75 -2 -40 -6 -73 -10 -73 -8 0 -28 -69 -31
-101 -1 -11 -5 -19 -9 -19 -4 0 -11 -18 -14 -40 -4 -22 -10 -37 -15 -35 -4 3
-11 -10 -14 -29 -4 -19 -13 -37 -21 -40 -8 -3 -14 -19 -14 -40 0 -21 -6 -36
-15 -40 -11 -4 -15 -21 -15 -66 0 -46 -3 -60 -15 -60 -10 0 -15 -16 -17 -62
-2 -39 -7 -62 -14 -61 -7 1 -12 -21 -13 -58 -2 -49 1 -59 15 -59 12 0 15 6 12
24 -3 16 2 28 14 37 12 9 18 26 18 51 0 21 6 40 14 45 8 4 16 22 18 38 2 17 8
29 16 28 6 -2 12 2 12 7 0 6 9 10 20 10 11 0 20 -4 20 -10 0 -5 9 -10 21 -10
l20 0 -20 29 c-28 39 -28 91 0 91 11 0 17 5 14 10 -3 6 -1 10 6 10 31 0 53 82
28 107 -8 8 -5 13 10 18 12 3 19 11 16 16 -4 5 8 9 24 9 17 0 31 5 31 10 0 6
7 10 15 10 8 0 15 7 15 15 0 8 6 15 14 15 8 0 18 9 21 20 3 11 11 20 16 20 13
0 11 28 -3 32 -8 3 -5 12 9 28 18 18 29 22 58 17 31 -5 36 -3 41 19 3 13 12
24 20 24 8 0 14 7 14 15 0 8 6 14 13 12 8 -1 13 14 15 43 4 56 -6 112 -19 105
-8 -5 -14 15 -10 38 0 4 -5 7 -13 7 -7 0 -25 11 -40 25 -15 14 -35 25 -45 25
-23 0 -31 19 -31 76 0 24 -4 44 -10 44 -16 0 -12 39 7 71 11 19 26 29 40 29
13 0 23 5 23 10 0 6 -8 10 -17 10 -15 0 -16 2 -3 9 8 6 17 8 20 6 3 -2 3 21 2
51 l-4 54 30 0 c25 0 32 -6 42 -32 10 -30 13 -31 19 -13 15 37 21 75 14 74
-19 -3 -33 2 -33 11 0 14 49 8 54 -7 3 -7 12 -13 21 -13 8 0 15 -9 15 -20 0
-11 6 -20 14 -20 7 0 16 -8 19 -19 3 -14 11 -17 31 -14 26 5 26 7 26 89 0 46
-4 84 -9 84 -5 0 -12 11 -15 25 -5 20 -13 25 -36 25 -17 0 -30 -4 -30 -9 0 -5
-7 -11 -15 -15 -11 -4 -15 1 -15 19 0 19 4 23 20 20 11 -2 18 0 15 6 -4 5 2 9
12 9 10 0 -2 10 -27 22 -25 12 -46 26 -48 30 -2 4 -18 10 -36 14 l-33 6 5 91
c3 57 10 97 19 105 7 8 13 35 13 63 0 27 4 49 9 49 5 0 12 42 16 93 4 50 12
98 18 105 6 7 12 49 15 92 3 60 8 77 18 73 10 -4 14 12 16 69 2 52 7 72 16 71
9 -2 12 17 12 72 0 60 -3 75 -15 75 -9 0 -15 9 -15 25 0 16 -6 25 -15 25 -9 0
-15 9 -15 23 0 14 6 24 15 25 8 1 22 3 30 4 8 1 15 5 15 10 0 4 -7 8 -15 8
-13 0 -15 21 -15 126 0 108 -2 125 -15 120 -11 -4 -15 1 -15 19 0 14 -5 25
-10 25 -6 0 -21 11 -34 25 -13 14 -26 25 -30 25 -10 0 -56 51 -56 61 0 5 7 9
15 9 8 0 15 -4 15 -10 0 -5 7 -10 15 -10 9 0 18 -7 21 -15 8 -20 64 -20 64 0
0 9 -7 18 -15 21 -8 4 -15 18 -15 34 0 17 -12 40 -35 64 -19 21 -35 41 -35 46
0 5 -14 11 -30 15 -24 5 -29 11 -25 25 3 10 2 21 -3 24 -13 8 -53 -5 -46 -15
3 -5 -6 -9 -20 -9 -14 0 -26 3 -26 8 0 12 39 42 55 42 8 0 15 5 15 10 0 6 -6
10 -14 10 -19 0 -26 22 -26 84 0 39 -5 56 -20 69 -11 9 -25 17 -30 17 -6 0
-10 16 -10 35 0 24 -5 35 -15 35 -9 0 -15 9 -15 25 0 21 -5 25 -30 25 -25 0
-30 4 -30 25 0 16 -6 25 -16 25 -20 0 -39 20 -48 48 -4 12 -12 20 -17 17 -5
-4 -9 2 -9 12 0 20 -41 43 -77 43 -13 0 -23 5 -23 10 0 6 -7 10 -15 10 -10 0
-15 11 -15 35 0 24 -5 35 -15 35 -10 0 -15 10 -15 31 0 31 0 32 -45 27 -34 -4
-45 -2 -45 8 0 8 -7 14 -15 14 -8 0 -15 5 -15 10 0 6 -6 10 -12 10 -22 1 -58
37 -58 59 0 22 -32 61 -50 61 -5 0 -10 5 -10 10 0 14 -27 13 -32 -1 -3 -8 -10
-6 -20 5 -10 9 -33 16 -57 16 -34 0 -41 3 -41 20 0 11 -7 20 -15 20 -9 0 -18
7 -21 15 -4 8 -13 15 -21 15 -8 0 -12 4 -8 9 8 14 -53 41 -90 41 -25 0 -34 5
-39 23 l-6 22 -19 -22 c-10 -12 -21 -20 -24 -17 -3 3 -11 7 -19 8 -29 6 -88
37 -88 46 0 6 -12 10 -26 10 -16 0 -36 11 -50 25 -13 14 -28 25 -34 25 -5 0
-10 5 -10 10 0 6 -7 10 -15 10 -8 0 -15 -4 -15 -10 0 -5 -20 -10 -45 -10 -25
0 -45 5 -45 10 0 6 -6 10 -14 10 -8 0 -16 5 -18 10 -2 6 -29 14 -61 17 -31 3
-57 9 -57 12 0 4 -29 15 -65 26 -36 10 -65 22 -65 27 0 4 -16 8 -35 8 -19 0
-35 5 -35 10 0 6 -17 10 -39 10 -21 0 -58 7 -81 15 -23 8 -53 15 -66 15 -13 0
-24 5 -24 10 0 6 -22 10 -49 10 -27 0 -51 5 -53 10 -2 6 -40 13 -86 17 -45 3
-82 10 -82 14 0 5 -39 9 -86 9 -54 0 -83 4 -79 10 4 6 -11 10 -39 10 -25 0
-47 4 -50 9 -9 13 -64 17 -126 8z m1920 -602 c0 -43 -25 -48 -33 -8 -6 32 -1
43 19 43 9 0 14 -11 14 -35z m-1525 -725 c3 -5 -1 -10 -9 -10 -9 0 -16 5 -16
10 0 6 4 10 9 10 6 0 13 -4 16 -10z m629 -121 c-3 -5 -22 -9 -42 -9 l-37 1 30
13 c31 13 59 11 49 -5z m-1059 1 c-3 -5 -13 -10 -21 -10 -8 0 -14 5 -14 10 0
6 9 10 21 10 11 0 17 -4 14 -10z m-2000 -1230 c3 -5 1 -10 -4 -10 -6 0 -11 5
-11 10 0 6 2 10 4 10 3 0 8 -4 11 -10z m4169 -35 c-4 -8 -11 -12 -16 -9 -6 4
-5 10 3 15 19 12 19 11 13 -6z m123 -67 c-3 -8 -6 -5 -6 6 -1 11 2 17 5 13 3
-3 4 -12 1 -19z m557 -403 c3 -9 0 -15 -9 -15 -8 0 -15 7 -15 15 0 8 4 15 9
15 5 0 11 -7 15 -15z m-218 -624 c-3 -5 3 -11 14 -14 11 -3 20 -13 20 -22 0
-9 -4 -13 -10 -10 -5 3 -10 1 -10 -4 0 -6 -9 -11 -20 -11 -27 0 -29 -56 -2
-63 13 -4 11 -5 -5 -6 -13 0 -23 5 -24 12 -1 29 -18 -32 -18 -70 -1 -33 -4
-41 -16 -37 -12 5 -15 -5 -15 -57 0 -35 -4 -59 -8 -52 -5 8 -13 9 -22 3 -26
-17 -30 -11 -30 40 0 36 4 52 15 56 9 4 15 19 15 35 0 19 5 29 15 29 11 0 15
12 15 49 0 47 2 50 30 56 28 6 38 27 31 68 0 4 6 7 15 7 8 0 13 -4 10 -9z"/>
<path d="M7260 10789 c0 -5 5 -7 10 -4 6 3 10 8 10 11 0 2 -4 4 -10 4 -5 0
-10 -5 -10 -11z"/>
<path d="M8401 10064 c0 -11 3 -14 6 -6 3 7 2 16 -1 19 -3 4 -6 -2 -5 -13z"/>
<path d="M8384 9726 c-21 -16 -15 -28 17 -33 26 -4 59 14 59 32 0 19 -50 20
-76 1z"/>
<path d="M8057 9556 c-4 -9 -14 -16 -24 -16 -15 0 -16 -2 -3 -10 8 -5 23 -7
33 -4 10 3 20 -1 23 -11 4 -9 13 -14 20 -11 10 4 14 -3 14 -24 0 -29 -14 -42
-22 -20 -2 6 -24 12 -51 13 -29 1 -47 7 -47 14 0 9 -23 12 -80 10 -60 -1 -80
-5 -80 -16 0 -10 -13 -12 -57 -9 -31 3 -59 10 -61 16 -2 7 -14 12 -27 12 -13
0 -27 5 -30 11 -7 11 -141 11 -160 0 -13 -7 -12 -7 -130 -15 -95 -7 -155 -22
-155 -38 0 -5 -7 -8 -15 -8 -10 0 -15 -10 -15 -30 0 -16 5 -30 10 -30 6 0 10
7 10 15 0 10 11 15 35 15 30 0 35 -3 35 -24 0 -13 -6 -26 -12 -29 -7 -3 0 -10
16 -16 16 -7 35 -10 42 -7 7 3 41 1 75 -4 35 -5 66 -5 69 -1 3 5 16 11 30 12
14 2 28 8 32 13 12 18 132 19 165 2 26 -13 41 -14 92 -5 44 8 69 8 92 0 34
-12 100 -13 136 -3 37 11 11 34 -46 40 -28 2 -56 11 -62 18 -7 8 -30 14 -55
14 -24 0 -44 5 -44 10 0 6 6 10 13 11 6 0 28 1 47 2 24 1 34 6 32 16 -2 9 3
11 13 7 9 -3 29 -6 43 -6 21 0 24 -2 12 -10 -11 -7 -4 -10 27 -10 23 0 43 -4
45 -9 2 -4 19 -11 39 -15 31 -5 37 -3 46 16 10 22 11 22 19 4 4 -11 2 -27 -4
-37 -7 -10 -12 -27 -12 -38 0 -16 4 -18 28 -12 23 7 27 13 26 44 -2 49 13 47
21 -3 4 -22 11 -40 17 -40 6 0 7 -7 4 -16 -5 -12 -2 -15 10 -10 8 3 18 6 21 6
2 0 -3 7 -11 16 -9 8 -16 21 -15 27 0 9 2 8 6 0 2 -7 18 -13 34 -13 17 0 51
-15 82 -35 28 -19 60 -35 69 -35 10 0 18 -4 18 -10 0 -5 6 -10 14 -10 8 0 16
-6 18 -12 3 -7 10 2 16 20 9 27 9 34 -3 39 -8 3 -15 13 -15 24 0 10 -10 24
-22 30 -32 17 -48 35 -48 53 0 10 6 13 15 10 8 -4 12 -11 9 -16 -4 -6 -1 -9 7
-6 22 7 16 42 -8 53 -13 5 -23 13 -23 17 0 5 -12 8 -26 8 -14 0 -23 4 -19 10
3 6 -3 10 -13 10 -39 0 -43 -53 -7 -90 23 -25 24 -26 6 -37 -16 -10 -22 -8
-35 12 -9 14 -23 25 -31 25 -8 0 -15 5 -15 10 0 6 -7 10 -15 10 -9 0 -18 7
-21 15 -4 8 -14 15 -24 15 -11 0 -20 10 -23 28 -4 21 -14 30 -44 39 -21 6 -45
14 -54 18 -10 4 -19 0 -22 -9z m309 -204 c-10 -10 -29 15 -21 28 6 9 10 8 17
-4 6 -10 7 -20 4 -24z m61 -8 c-3 -3 -12 -4 -19 -1 -8 3 -5 6 6 6 11 1 17 -2
13 -5z"/>
<path d="M4905 9550 c4 -6 11 -8 16 -5 14 9 11 15 -7 15 -8 0 -12 -5 -9 -10z"/>
<path d="M4980 9553 c-34 -13 -33 -53 2 -53 10 0 16 -4 13 -10 -3 -5 1 -10 10
-10 11 0 15 5 12 14 -3 7 -1 18 5 24 6 6 8 18 5 26 -7 16 -20 19 -47 9z"/>
<path d="M4760 9510 c0 -5 -7 -10 -15 -10 -8 0 -14 -3 -12 -7 2 -8 -6 -13 -24
-13 -5 0 -7 5 -4 10 4 6 -7 10 -24 10 -19 0 -30 -5 -28 -12 1 -7 -8 -14 -20
-16 -21 -3 -28 -13 -24 -34 0 -5 -10 -8 -23 -8 -33 0 -42 -16 -16 -30 29 -15
26 -48 -4 -52 -23 -3 -24 -5 -10 -23 13 -18 25 -20 117 -18 105 2 186 18 193
37 3 7 24 10 54 8 28 -2 47 -8 44 -13 -3 -5 42 -9 105 -9 67 0 111 4 111 10 0
6 13 10 29 10 17 0 32 4 36 10 3 5 37 7 78 4 189 -13 227 -17 227 -25 0 -5 21
-9 48 -10 35 0 42 -3 27 -9 -17 -7 -15 -9 13 -9 21 -1 32 -6 32 -16 0 -11 12
-15 48 -15 29 0 42 -3 34 -9 -11 -7 -10 -10 3 -15 26 -9 57 -7 50 4 -3 6 1 10
10 10 9 0 14 -4 11 -9 -4 -5 0 -12 6 -15 7 -3 -14 -5 -47 -4 -89 2 -265 -14
-265 -23 0 -5 -29 -9 -65 -9 -36 0 -65 -4 -65 -9 0 -4 -28 -11 -61 -14 -34 -3
-65 -11 -69 -17 -6 -9 -9 -9 -13 1 -4 10 -6 10 -6 2 -1 -9 -19 -13 -56 -13
-30 0 -63 -4 -73 -9 -9 -6 -34 -13 -54 -16 -21 -3 -38 -10 -38 -15 0 -6 -20
-10 -45 -10 -25 0 -45 -4 -45 -10 0 -5 -13 -10 -30 -10 -16 0 -30 -4 -30 -10
0 -5 -7 -10 -15 -10 -9 0 -18 -7 -21 -15 -4 -8 -12 -15 -20 -15 -8 0 -14 -3
-14 -8 0 -4 -20 -16 -44 -27 -25 -11 -47 -28 -50 -38 -2 -9 0 -15 4 -12 5 3
10 0 12 -6 2 -7 12 -7 32 0 15 6 32 9 37 5 5 -3 9 0 9 5 0 18 17 12 46 -14 21
-19 38 -25 73 -25 36 0 43 3 31 11 -12 9 -12 10 3 5 67 -22 85 -15 52 18 -8 8
-15 24 -15 35 0 12 6 21 15 21 8 0 15 7 15 15 0 10 10 15 30 15 17 0 30 3 30
8 0 9 49 32 71 32 12 0 18 -12 22 -41 4 -29 14 -49 38 -70 18 -16 38 -29 45
-29 7 0 14 -3 16 -7 9 -21 66 -41 108 -38 63 6 70 7 70 17 0 4 5 8 10 8 6 0
18 8 28 18 11 9 28 25 38 34 49 44 56 57 54 95 -2 21 -2 44 -1 51 1 14 31 17
31 2 0 -5 14 -10 30 -10 17 0 30 -4 30 -10 0 -5 4 -10 9 -10 16 0 78 -64 82
-85 5 -24 60 -47 66 -27 3 6 11 12 19 12 8 0 14 10 14 25 0 15 -6 25 -14 25
-8 0 -17 7 -20 16 -3 8 -10 13 -15 10 -5 -3 -11 1 -15 9 -3 8 -12 15 -20 15
-8 0 -16 3 -18 8 -6 13 -69 42 -94 42 -13 0 -24 5 -24 10 0 6 -27 10 -61 10
-44 0 -59 3 -56 13 5 15 170 14 175 -2 2 -6 24 -11 48 -11 30 0 61 -9 90 -25
25 -14 52 -25 62 -25 9 0 30 -7 45 -15 24 -12 29 -12 33 0 6 14 -28 55 -46 55
-5 0 -10 8 -10 19 0 10 -9 21 -20 24 -11 3 -20 12 -20 20 0 8 9 17 20 20 21 5
28 27 10 27 -14 0 -45 31 -53 53 -4 9 -14 17 -22 17 -20 0 -11 39 13 56 10 7
12 18 7 34 -6 17 -9 20 -16 9 -7 -11 -9 -10 -9 4 0 15 -10 17 -76 17 -41 0
-73 4 -70 9 6 9 -67 21 -164 28 -30 2 -93 6 -140 9 -48 3 -88 11 -92 17 -6 9
-8 9 -8 0 0 -9 -22 -13 -74 -13 -90 0 -105 -5 -99 -31 5 -16 14 -19 69 -19 69
0 78 -8 39 -34 -19 -12 -30 -14 -44 -6 -25 13 -87 13 -111 0 -14 -7 -23 -6
-34 6 -9 8 -16 20 -16 25 0 5 -22 9 -50 9 -27 0 -50 5 -50 10 0 6 -7 10 -15
10 -9 0 -12 6 -8 17 4 11 3 14 -5 9 -7 -4 -15 -1 -18 8 -4 12 -20 16 -55 16
-27 0 -49 -4 -49 -10z m105 -50 c-6 -10 -40 -8 -51 3 -4 4 7 7 25 7 19 0 30
-4 26 -10z m58 -37 c74 -7 91 -23 24 -23 -23 0 -51 -6 -62 -13 -38 -26 -136
-49 -152 -36 -14 12 -6 39 12 39 7 0 18 7 25 15 7 8 16 12 21 9 5 -3 9 0 9 5
0 13 27 13 123 4z m-258 -62 c-18 -7 -55 -4 -55 5 0 2 17 4 38 3 28 0 32 -2
17 -8z m1058 -68 c-7 -2 -21 -2 -30 0 -10 3 -4 5 12 5 17 0 24 -2 18 -5z
m-391 -218 c-3 -22 -9 -34 -16 -30 -6 3 -19 8 -28 11 -11 4 -18 16 -18 30 0
20 5 24 33 24 32 0 33 -1 29 -35z m164 21 c8 -8 14 -24 14 -35 0 -16 -6 -21
-28 -21 -34 0 -65 30 -56 54 8 20 50 21 70 2z"/>
<path d="M8590 9442 c0 -10 3 -22 7 -25 10 -11 32 13 26 29 -8 20 -33 17 -33
-4z"/>
<path d="M8711 9394 c0 -11 3 -14 6 -6 3 7 2 16 -1 19 -3 4 -6 -2 -5 -13z"/>
<path d="M4415 9320 c17 -7 17 -9 3 -9 -12 -1 -18 -9 -18 -26 0 -21 5 -25 30
-25 17 0 30 5 30 10 0 6 7 10 15 10 9 0 15 9 15 25 0 23 -3 25 -47 24 -36 0
-43 -3 -28 -9z"/>
<path d="M4530 9259 c0 -11 5 -19 12 -17 17 6 19 38 2 38 -8 0 -14 -9 -14 -21z"/>
<path d="M7225 9240 c3 -5 13 -10 21 -10 8 0 12 5 9 10 -3 6 -13 10 -21 10 -8
0 -12 -4 -9 -10z"/>
<path d="M4497 9233 c-13 -12 -7 -23 12 -23 26 0 35 16 15 24 -19 7 -19 7 -27
-1z"/>
<path d="M7304 9219 c-4 -7 -24 -9 -52 -6 -78 9 -174 -41 -180 -93 -3 -26 0
-29 28 -28 16 1 30 4 30 8 0 3 19 7 42 9 25 1 46 8 51 17 5 8 12 12 17 9 5 -3
11 -1 15 5 4 6 11 8 16 5 5 -4 9 -1 9 4 0 6 15 11 34 11 19 0 36 5 38 10 2 6
43 13 91 17 76 5 87 8 87 24 0 17 -10 19 -109 19 -70 0 -112 -4 -117 -11z"/>
<path d="M7655 9170 c-3 -5 -33 -10 -66 -10 -33 0 -59 -4 -59 -10 0 -5 -19
-10 -42 -10 -24 0 -56 -7 -72 -15 -15 -8 -44 -15 -62 -15 -19 0 -34 -4 -34
-10 0 -5 -9 -10 -20 -10 -11 0 -20 -4 -20 -10 0 -5 -7 -10 -15 -10 -9 0 -18
-7 -21 -15 -4 -8 -17 -15 -30 -15 -15 0 -24 -6 -24 -15 0 -8 -7 -15 -15 -15
-9 0 -15 -9 -15 -25 0 -14 -5 -24 -11 -23 -6 2 -14 -3 -17 -11 -3 -10 0 -12
12 -8 10 4 30 7 45 7 15 0 37 9 49 20 12 11 26 20 32 20 5 0 10 5 10 11 0 15
26 39 43 39 8 0 17 7 21 15 3 8 12 15 21 15 8 0 15 4 15 9 0 5 20 11 45 13 43
3 45 2 45 -24 0 -15 -8 -31 -17 -37 -14 -8 -15 -10 -3 -11 13 0 13 -1 0 -10
-13 -8 -12 -10 3 -10 12 0 17 -8 17 -30 0 -20 5 -30 15 -30 8 0 15 -4 15 -10
0 -5 5 -10 10 -10 6 0 21 -11 34 -25 16 -17 34 -25 55 -25 18 0 30 -4 26 -9
-3 -5 -1 -13 5 -16 6 -4 8 -15 5 -26 -4 -11 -2 -19 4 -19 6 0 11 10 11 23 0
17 9 26 33 35 18 7 41 12 50 12 9 0 17 5 17 10 0 6 7 10 15 10 8 0 15 7 15 16
0 10 6 14 15 10 9 -3 15 0 15 9 0 8 7 15 15 15 8 0 15 7 15 15 0 9 7 18 15 21
10 4 15 20 15 51 0 44 1 45 28 38 15 -3 29 -11 30 -16 2 -5 12 -9 23 -9 10 0
19 -4 19 -10 0 -5 6 -10 14 -10 8 0 22 -8 32 -17 10 -10 22 -18 28 -18 6 0 12
-13 14 -28 3 -20 8 -27 18 -23 9 3 12 1 9 -4 -4 -6 13 -10 42 -10 38 0 53 5
72 26 17 17 27 22 35 14 18 -18 46 -12 46 10 0 11 -6 20 -14 20 -7 0 -22 11
-32 25 -10 14 -22 25 -27 25 -4 0 -15 6 -23 13 -8 6 -20 17 -27 22 -7 6 -23
12 -37 13 -14 2 -26 8 -28 13 -2 5 -21 9 -42 9 -21 0 -42 5 -46 11 -3 6 -18 9
-33 6 -26 -5 -60 7 -73 27 -5 8 -8 7 -8 -1 0 -7 -5 -13 -11 -13 -5 0 -7 5 -4
10 4 6 -18 10 -59 10 -36 0 -68 5 -71 10 -3 6 -24 10 -45 10 -21 0 -42 -4 -45
-10z m345 -70 c0 -5 -7 -10 -15 -10 -8 0 -15 5 -15 10 0 6 7 10 15 10 8 0 15
-4 15 -10z m-404 -64 c-2 -15 -11 -22 -34 -24 -30 -3 -32 -2 -32 32 0 28 4 35
23 38 27 5 48 -17 43 -46z m162 28 c33 -9 30 -50 -4 -57 -41 -7 -64 3 -64 28
0 31 23 41 68 29z"/>
<path d="M9300 8917 c0 -35 1 -37 16 -23 14 14 14 18 0 38 -16 22 -16 22 -16
-15z"/>
<path d="M3820 8897 c0 -28 6 -32 26 -19 8 5 5 13 -7 26 -19 19 -19 19 -19 -7z"/>
<path d="M7967 8905 c-4 -8 -16 -15 -27 -15 -11 0 -20 -4 -20 -9 0 -5 9 -7 20
-4 21 6 46 31 38 39 -3 3 -8 -2 -11 -11z"/>
<path d="M7255 8891 c-9 -16 21 -24 42 -12 10 6 13 11 6 11 -6 0 -18 3 -26 6
-8 3 -18 1 -22 -5z"/>
<path d="M5180 8880 c0 -5 14 -10 30 -10 17 0 30 5 30 10 0 6 -13 10 -30 10
-16 0 -30 -4 -30 -10z"/>
<path d="M5493 8873 c0 -7 4 -13 9 -13 4 0 8 4 8 10 0 5 6 7 14 4 8 -3 17 0
21 6 4 7 -4 10 -23 8 -16 -1 -29 -8 -29 -15z"/>
<path d="M7156 8878 c3 -4 9 -8 15 -8 5 0 9 4 9 8 0 5 -7 9 -15 9 -8 0 -12 -4
-9 -9z"/>
<path d="M7856 8881 c-4 -6 -16 -11 -27 -11 -10 0 -19 -4 -19 -10 0 -12 57
-14 64 -2 2 4 1 14 -3 21 -6 9 -11 10 -15 2z"/>
<path d="M7525 8840 c-14 -6 -16 -9 -5 -10 76 -10 74 -10 54 5 -22 16 -22 17
-49 5z"/>
<path d="M9426 8704 c-3 -9 -6 -25 -6 -37 0 -16 -3 -18 -9 -9 -6 10 -10 8 -14
-10 -10 -35 -8 -88 2 -88 5 0 12 -8 14 -17 3 -10 5 8 6 40 1 41 5 59 16 63 9
4 15 19 15 40 0 35 -13 46 -24 18z"/>
<path d="M9330 8280 c0 -5 7 -10 15 -10 8 0 15 5 15 10 0 6 -7 10 -15 10 -8 0
-15 -4 -15 -10z"/>
<path d="M4060 8240 c0 -19 5 -29 13 -27 27 5 28 57 1 57 -9 0 -14 -11 -14
-30z"/>
<path d="M9330 8197 c0 -14 6 -24 15 -24 8 0 15 4 15 9 0 4 -5 8 -11 8 -5 0
-8 4 -4 9 3 5 1 12 -5 16 -6 3 -10 -4 -10 -18z"/>
<path d="M9056 8045 c-3 -8 -1 -15 4 -15 6 0 10 7 10 15 0 8 -2 15 -4 15 -2 0
-6 -7 -10 -15z"/>
<path d="M8970 8010 c0 -5 5 -10 11 -10 5 0 7 5 4 10 -3 6 -8 10 -11 10 -2 0
-4 -4 -4 -10z"/>
<path d="M4030 7989 c0 -5 5 -7 10 -4 6 3 10 8 10 11 0 2 -4 4 -10 4 -5 0 -10
-5 -10 -11z"/>
<path d="M5868 7891 c-63 -40 -85 -101 -38 -101 11 0 23 -7 26 -15 4 -8 14
-15 24 -15 10 0 20 -4 22 -9 4 -14 141 -17 145 -4 2 6 -12 14 -30 17 -39 7
-61 46 -26 46 10 0 19 4 19 9 0 5 11 9 25 9 14 0 28 -4 31 -9 7 -12 84 -11 84
0 0 5 -9 12 -19 16 -11 3 -22 12 -25 20 -3 8 -26 20 -51 26 -25 6 -45 15 -45
20 0 16 -114 8 -142 -10z"/>
<path d="M6830 7883 c-14 -3 -29 -9 -34 -14 -6 -5 -17 -9 -25 -9 -9 0 -24 -12
-34 -25 l-18 -25 73 -1 c40 -1 76 -1 81 0 4 0 7 -8 7 -19 0 -14 -9 -21 -35
-26 -37 -7 -40 -10 -25 -34 11 -18 135 -19 153 -1 6 6 20 11 32 11 11 0 31 9
43 19 22 16 23 19 8 34 -9 8 -16 19 -16 24 0 13 -38 43 -54 43 -8 0 -16 5 -18
12 -4 12 -91 19 -138 11z"/>
<path d="M4257 7783 c-13 -13 -7 -53 8 -53 8 0 15 8 15 18 0 22 -14 44 -23 35z"/>
<path d="M4284 7616 c-10 -27 2 -43 14 -19 8 14 9 24 2 28 -6 3 -13 -1 -16 -9z"/>
<path d="M7428 7596 c-28 -20 -23 -56 6 -56 48 0 56 8 39 41 -16 33 -21 34
-45 15z"/>
<path d="M8651 7399 c-1 -34 3 -46 14 -46 8 0 15 7 15 14 0 8 7 22 16 30 14
14 14 17 -1 32 -13 13 -17 14 -24 2 -7 -11 -9 -11 -14 0 -3 8 -6 -7 -6 -32z"/>
<path d="M5379 7340 c-9 -5 -52 -11 -95 -12 -71 -2 -82 -5 -106 -29 -28 -28
-38 -71 -15 -66 7 1 13 -11 15 -28 4 -33 31 -64 50 -57 6 2 12 -2 12 -8 0 -7
7 -10 15 -6 9 3 15 0 15 -8 0 -16 27 -29 41 -20 5 3 13 -6 18 -19 8 -20 16
-24 50 -24 33 0 40 3 43 21 2 12 12 22 23 24 17 3 17 1 5 -7 -11 -8 -5 -11 28
-11 23 0 42 5 42 10 0 6 23 10 51 10 31 0 48 -4 44 -10 -6 -9 10 -14 43 -13 6
1 12 -5 12 -13 0 -8 9 -14 19 -14 11 0 22 -6 24 -12 4 -10 6 -10 6 0 1 6 6 12
12 12 5 0 7 -4 4 -10 -3 -6 4 -10 17 -9 13 0 18 3 12 5 -6 2 -8 18 -6 34 3 23
9 30 27 30 12 0 28 -7 35 -15 14 -17 45 -21 35 -5 -3 6 2 13 12 17 10 4 21 11
25 17 5 7 23 7 60 -1 32 -6 62 -7 76 -2 32 12 219 11 227 -1 3 -5 40 -10 81
-10 43 0 74 -4 74 -10 0 -5 14 -10 31 -10 16 0 28 4 25 9 -3 5 73 11 172 15
97 3 195 7 217 8 22 0 54 0 70 -2 17 -2 52 0 78 5 32 5 52 4 60 -4 6 -6 37
-11 69 -11 60 0 83 -19 26 -21 -18 -1 -37 -2 -43 -4 -5 -1 -16 -3 -23 -3 -9
-2 -8 -8 4 -27 9 -14 20 -22 25 -19 5 3 8 0 7 -8 -3 -15 55 -13 60 3 2 5 17 9
33 9 16 0 29 5 29 10 0 6 7 10 15 10 8 0 15 7 15 15 0 8 7 15 15 15 8 0 15 5
15 10 0 6 23 10 51 10 35 0 48 -3 43 -11 -5 -9 26 -10 116 -7 101 3 124 7 132
21 11 21 28 22 28 2 0 -26 40 -17 71 16 28 30 30 55 3 45 -18 -7 -104 42 -104
60 0 9 -5 12 -10 9 -6 -3 -13 1 -16 9 -3 9 -10 13 -15 10 -5 -3 -9 0 -9 5 0 6
-16 11 -35 11 -19 0 -34 3 -34 8 4 21 -2 43 -10 38 -5 -3 -14 1 -21 9 -17 20
-30 9 -30 -26 0 -18 -5 -29 -14 -29 -8 0 -17 -6 -19 -12 -4 -10 -6 -10 -6 0
-1 6 -6 12 -12 12 -5 0 -8 -4 -4 -9 3 -5 1 -12 -4 -15 -14 -9 0 -48 15 -42 15
6 18 -12 8 -39 -5 -13 -9 -14 -15 -4 -6 10 -38 13 -116 14 -102 0 -173 15
-173 37 0 5 -18 8 -41 8 -23 0 -47 7 -56 16 -18 17 -69 15 -66 -3 2 -7 -2 -13
-7 -13 -6 0 -10 -4 -10 -10 0 -5 13 -10 29 -10 17 0 32 -4 35 -9 7 -10 -51
-21 -117 -21 -30 0 -46 -4 -42 -10 4 -6 -25 -10 -79 -10 -53 0 -86 -4 -86 -10
0 -8 -43 -9 -132 -5 -254 10 -338 16 -333 24 2 5 -36 11 -85 13 -77 4 -93 7
-105 25 -9 12 -26 20 -46 21 -19 0 -36 8 -42 17 -5 11 -13 13 -20 7 -7 -5 -36
-12 -66 -15 -30 -4 -59 -11 -65 -17 -5 -5 -26 -10 -46 -10 -20 0 -41 -5 -48
-12 -11 -11 -103 -19 -134 -10 -10 2 -15 8 -12 13 3 5 -5 13 -18 18 -23 10
-22 10 5 10 28 1 39 25 15 34 -10 3 -10 8 2 21 13 16 12 18 -10 14 -14 -2 -34
5 -44 14 -11 10 -32 18 -48 18 -15 0 -28 5 -28 10 0 13 -30 12 -51 0z m41 -20
c0 -5 -9 -10 -21 -10 -11 0 -17 5 -14 10 3 6 13 10 21 10 8 0 14 -4 14 -10z
m590 -124 c0 -3 -4 -8 -10 -11 -5 -3 -10 -1 -10 4 0 6 5 11 10 11 6 0 10 -2
10 -4z"/>
<path d="M8627 7313 c-11 -10 -8 -73 3 -73 6 0 10 18 10 40 0 41 -2 45 -13 33z"/>
<path d="M8587 7186 c-6 -15 1 -26 15 -26 4 0 8 9 8 20 0 23 -15 27 -23 6z"/>
<path d="M5830 7066 c0 -2 7 -9 15 -16 9 -7 15 -8 15 -2 0 5 -7 12 -15 16 -8
3 -15 4 -15 2z"/>
<path d="M5870 7050 c0 -5 5 -10 10 -10 6 0 10 5 10 10 0 6 -4 10 -10 10 -5 0
-10 -4 -10 -10z"/>
<path d="M5896 7042 c-9 -28 -11 -26 33 -41 21 -7 38 -8 44 -2 5 5 -3 12 -21
15 -16 4 -34 17 -39 29 l-10 22 -7 -23z"/>
<path d="M7025 7050 c28 -12 37 -12 30 0 -3 6 -16 10 -28 9 -21 0 -21 -1 -2
-9z"/>
<path d="M8500 6983 c0 -10 5 -25 10 -33 7 -11 10 -7 10 18 0 17 -4 32 -10 32
-5 0 -10 -8 -10 -17z"/>
<path d="M8470 6946 c0 -7 -9 -21 -20 -31 -25 -22 -29 -92 -5 -92 10 0 15 10
15 29 0 16 6 31 15 34 9 4 13 15 11 29 -3 13 1 26 7 28 6 2 3 6 -6 10 -11 4
-17 1 -17 -7z"/>
<path d="M4660 6821 c0 -12 4 -21 9 -21 5 0 12 -12 16 -27 5 -21 8 -24 16 -12
5 7 9 10 10 4 4 -48 12 -60 28 -42 8 11 6 19 -9 37 -11 13 -20 27 -20 32 0 4
-7 8 -15 8 -8 0 -15 6 -15 14 0 8 -4 18 -10 21 -5 3 -10 -3 -10 -14z"/>
<path d="M8437 6773 c-4 -3 -7 -19 -7 -34 0 -41 -11 -64 -21 -47 -7 10 -9 9
-9 -4 0 -9 -5 -18 -12 -20 -17 -6 -19 -38 -1 -38 10 0 12 -6 7 -22 -6 -21 -6
-21 10 -5 10 9 19 17 21 17 2 0 3 -23 3 -51 1 -49 -21 -89 -48 -89 -5 0 -10
-7 -10 -15 0 -8 -16 -19 -37 -24 -32 -9 -40 -8 -51 6 -18 25 -10 37 27 39 34
2 49 10 38 20 -4 4 -13 1 -22 -6 -12 -10 -16 -9 -22 5 -4 12 0 23 12 31 10 8
15 14 9 14 -5 0 5 11 21 24 23 19 27 27 19 36 -9 9 -15 5 -26 -17 -7 -16 -23
-29 -36 -31 -12 -2 -22 -8 -22 -14 0 -13 -41 -47 -57 -48 -7 0 -12 -3 -10 -8
3 -11 -39 -62 -52 -62 -6 0 -31 -10 -56 -22 -24 -12 -47 -20 -49 -17 -2 2 -2
16 1 32 4 19 11 27 27 27 23 1 66 32 66 49 0 6 6 8 13 5 10 -3 13 3 9 25 -4
27 -21 35 -38 18 -4 -4 -13 -2 -21 4 -10 9 -13 7 -13 -8 0 -10 -6 -25 -12 -31
-10 -10 -16 -8 -30 10 -18 25 -26 22 -33 -10 -2 -13 3 -25 12 -30 10 -6 12
-12 5 -16 -15 -9 -42 4 -42 20 0 16 -26 19 -35 4 -3 -5 -1 -10 5 -10 6 0 8 -5
4 -12 -4 -6 1 -17 11 -24 10 -8 17 -15 14 -17 -36 -29 -72 -48 -94 -49 -15 -2
-30 -8 -32 -15 -3 -7 -10 -10 -16 -6 -6 4 -7 1 -2 -7 6 -10 11 -9 21 5 12 16
14 16 20 2 7 -19 -3 -38 -19 -36 -27 3 -37 -2 -38 -18 0 -14 -2 -15 -6 -3 -13
32 -32 42 -61 32 l-27 -10 33 -1 c21 -1 32 -6 32 -16 0 -19 -39 -40 -69 -36
-16 2 -31 -6 -45 -23 -12 -15 -36 -28 -56 -31 -19 -3 -38 -11 -42 -18 -6 -9
-8 -9 -8 1 0 6 -4 12 -9 12 -11 0 -26 -39 -22 -59 1 -7 -2 -10 -9 -6 -13 8
-80 -32 -80 -48 0 -7 -12 -13 -27 -14 -14 0 -30 -8 -35 -17 -5 -9 -16 -16 -23
-16 -8 0 -15 -5 -15 -12 0 -6 -2 -9 -5 -6 -3 3 -19 -6 -35 -20 -17 -15 -38
-27 -47 -28 -10 0 -35 -1 -55 -2 -26 -1 -38 -7 -38 -17 0 -8 -9 -15 -21 -15
-11 0 -17 -4 -14 -10 3 -5 1 -10 -4 -10 -6 0 -11 5 -11 10 0 6 -7 10 -16 10
-8 0 -12 -4 -9 -10 4 -6 -8 -10 -30 -10 -19 0 -43 -4 -53 -9 -27 -13 -118 -41
-135 -41 -8 0 -18 8 -22 18 -6 16 -7 16 -16 0 -12 -22 -43 -22 -124 -3 -51 12
-63 12 -88 0 -22 -11 -34 -12 -55 -3 -15 7 -31 12 -37 13 -5 0 -16 4 -23 9 -9
5 -15 1 -19 -13 -6 -25 -12 -26 -57 -4 -28 13 -41 14 -60 5 -17 -8 -35 -8 -58
-1 -18 5 -58 9 -88 9 -80 -2 -92 -1 -86 8 3 5 -47 10 -112 11 -64 1 -119 7
-123 12 -3 6 -10 9 -15 8 -5 -1 -22 3 -39 10 -16 7 -48 15 -70 16 -22 2 -41 8
-43 14 -2 6 -12 11 -23 11 -20 0 -60 19 -71 34 -3 5 -18 10 -32 12 -28 3 -34
-14 -14 -34 17 -17 31 -15 24 3 -8 21 -1 19 28 -10 14 -14 30 -25 35 -25 6 0
21 -11 35 -25 19 -19 35 -25 70 -25 25 0 48 -4 51 -10 3 -5 17 -10 31 -10 13
0 24 -4 24 -10 0 -5 7 -10 15 -10 8 0 15 -6 15 -14 0 -8 -7 -16 -15 -20 -15
-6 -21 -46 -7 -46 15 0 62 25 62 33 0 4 9 3 19 -3 11 -5 36 -10 56 -10 22 0
34 -4 30 -10 -4 -6 8 -10 28 -10 22 0 37 -6 41 -15 6 -17 66 -21 66 -5 0 7 6
7 19 0 11 -5 32 -10 48 -11 24 0 25 -1 8 -9 -13 -5 12 -9 73 -11 51 -2 96 -1
100 2 11 9 93 -2 86 -12 -3 -5 9 -9 25 -9 17 0 31 5 31 10 0 6 11 10 25 10 14
0 38 9 53 20 31 22 63 29 150 31 34 1 62 5 62 9 0 4 36 16 80 26 44 11 80 22
80 27 0 4 9 7 20 7 11 0 20 -4 20 -9 0 -9 29 2 103 39 20 10 37 14 37 9 0 -5
7 -9 15 -9 8 0 15 4 15 8 0 12 71 32 106 31 l29 -1 -30 -8 c-25 -6 -21 -8 26
-9 43 -1 62 4 83 20 26 20 28 20 68 4 41 -16 42 -16 59 7 16 21 19 21 36 6 22
-20 49 -9 40 16 -4 9 -2 16 3 16 6 0 10 -9 10 -20 0 -26 30 -26 37 -1 3 11 10
18 16 16 15 -6 41 15 50 38 9 23 27 22 27 -3 0 -11 8 -24 18 -28 9 -4 17 -16
17 -26 0 -11 6 -21 13 -23 18 -7 15 37 -4 58 -10 11 -13 25 -9 38 8 27 22 27
30 1 3 -11 13 -20 21 -20 8 0 14 -7 14 -15 0 -8 7 -15 15 -15 18 0 19 12 4 27
-16 16 -3 43 21 43 11 0 20 4 20 10 0 5 -13 7 -31 3 -25 -5 -31 -3 -27 8 2 8
15 20 29 26 20 10 25 10 27 -2 2 -10 11 -13 26 -9 28 7 68 -9 94 -36 11 -12
28 -23 38 -24 21 -3 33 -46 14 -46 -7 0 -10 -8 -7 -20 3 -14 0 -20 -10 -20
-12 0 -14 -7 -9 -31 3 -17 6 -44 6 -60 0 -21 5 -29 18 -30 9 0 2 -5 -15 -10
-35 -10 -45 -29 -15 -29 10 0 26 -6 36 -13 14 -10 15 -17 7 -40 -6 -16 -15
-26 -20 -23 -5 4 -7 -3 -4 -14 4 -15 0 -20 -13 -20 -15 0 -16 -2 -5 -9 9 -6
10 -11 2 -15 -16 -10 -13 -72 4 -86 12 -10 15 -10 15 1 0 8 5 6 12 -6 6 -11
17 -24 25 -28 17 -10 17 -27 -1 -27 -7 0 -22 -12 -32 -27 -10 -16 -24 -34 -32
-42 -9 -9 -13 -30 -10 -56 2 -29 -1 -41 -8 -38 -7 2 -12 20 -12 39 0 20 -3 38
-7 42 -4 4 -6 -13 -5 -38 3 -68 2 -69 -32 -101 -34 -30 -33 -33 7 -54 6 -3 5
-7 -3 -11 -7 -3 -24 -18 -37 -32 -21 -22 -22 -28 -10 -35 20 -11 19 -25 -1
-29 -12 -2 -17 -16 -18 -47 -2 -25 -8 -47 -14 -49 -7 -2 -12 -12 -12 -22 0
-22 -50 -80 -50 -59 -1 20 -29 -32 -30 -53 0 -20 -35 -60 -44 -50 -3 3 -6 -3
-6 -14 0 -12 -12 -24 -30 -32 -17 -8 -33 -24 -36 -36 -3 -12 -15 -26 -27 -31
-17 -8 -23 -20 -25 -52 -3 -34 -7 -42 -25 -45 -16 -2 -21 -9 -19 -24 2 -12 -4
-24 -13 -27 -8 -4 -15 -15 -15 -26 0 -10 -7 -21 -15 -25 -10 -3 -15 -19 -15
-43 0 -27 -3 -34 -9 -24 -8 12 -11 9 -16 -11 -5 -17 -12 -25 -21 -21 -9 3 -14
-2 -14 -16 0 -12 6 -21 15 -21 8 0 15 -5 15 -11 0 -5 -4 -8 -9 -5 -11 7 -21
-17 -21 -50 0 -16 -6 -24 -17 -24 -15 0 -15 -1 2 -14 15 -10 18 -26 17 -75 0
-47 3 -61 14 -61 8 0 14 -10 14 -22 0 -17 -3 -19 -9 -10 -6 10 -10 8 -14 -9
-4 -13 -4 -25 -2 -28 6 -5 119 50 123 61 2 4 12 8 22 8 9 0 23 7 30 15 7 8 19
15 26 15 8 0 14 5 14 10 0 6 7 10 15 10 8 0 15 5 15 11 0 5 5 7 10 4 6 -3 13
1 16 9 3 9 12 16 20 16 8 0 14 6 14 14 0 8 6 21 13 28 8 7 17 26 21 41 3 15
11 25 16 22 5 -3 13 12 16 35 4 22 10 40 15 40 5 0 9 6 9 14 0 7 9 25 20 39
11 14 20 32 20 40 0 8 7 17 15 21 8 3 15 17 15 31 0 16 6 25 15 25 10 0 15 10
15 29 0 16 6 31 15 35 8 3 15 17 15 30 0 18 4 24 15 20 11 -5 15 1 15 25 0 21
5 31 15 31 10 0 15 10 15 30 0 18 6 33 15 36 9 4 15 19 15 35 0 16 6 32 14 35
8 3 17 21 20 40 4 19 11 34 15 34 5 0 12 16 15 35 4 21 13 35 21 35 8 0 15 7
15 16 0 8 7 22 15 30 8 9 15 24 15 34 0 10 7 20 15 24 8 3 15 15 15 26 0 11 7
20 15 20 8 0 15 9 15 20 0 11 7 20 15 20 13 0 20 18 16 43 0 4 6 7 14 7 9 0
15 9 15 25 0 15 6 25 14 25 9 0 16 20 21 63 7 59 8 61 22 40 9 -13 19 -23 24
-23 16 0 9 38 -8 44 -14 6 -14 9 5 26 12 11 25 20 30 20 6 0 13 20 16 45 4 25
11 45 17 45 5 0 9 7 9 15 0 7 7 18 16 23 13 7 17 28 19 92 3 61 8 86 18 92 22
12 22 168 1 168 -18 0 -18 17 -1 35 19 18 21 222 3 232 -7 5 -15 31 -18 60 -4
41 -11 58 -36 83 -18 17 -32 36 -32 41 0 5 -5 9 -11 9 -7 0 -21 10 -32 23
l-19 22 6 -25 c5 -19 5 -21 -3 -9 -7 11 -19 15 -38 11 -25 -5 -27 -4 -14 11 7
10 22 17 32 17 11 0 19 5 19 10 0 6 -7 10 -15 10 -17 0 -16 -8 -15 138 1 102
-4 125 -23 105z m23 -393 c0 -75 -11 -108 -24 -74 -8 21 -8 149 0 157 16 16
24 -10 24 -83z m-248 21 c-11 -7 -10 -9 3 -15 22 -8 9 -26 -20 -26 -13 0 -25
-4 -27 -10 -2 -5 -9 -6 -17 -1 -19 12 -6 41 18 41 11 0 23 5 26 10 3 6 12 10
18 10 8 0 8 -3 -1 -9z m66 -13 c19 -19 14 -28 -13 -28 -18 0 -25 5 -25 20 0
22 20 26 38 8z m212 -108 c0 -5 -5 -10 -11 -10 -5 0 -7 5 -4 10 3 6 8 10 11
10 2 0 4 -4 4 -10z m-239 -80 c5 0 9 -5 9 -10 0 -6 -11 -8 -26 -4 -20 5 -26 2
-31 -15 -3 -11 -11 -21 -19 -21 -9 0 -2 16 19 46 27 39 32 43 35 25 2 -12 8
-21 13 -21z m-83 -63 c20 -16 11 -52 -13 -52 -11 0 -19 5 -18 12 2 6 -6 15
-17 18 -20 6 -26 25 -13 38 8 8 42 -1 61 -16z m2 -683 c0 -3 -6 -12 -14 -19
-17 -18 -29 -8 -13 11 12 14 27 18 27 8z"/>
<path d="M4744 6704 c3 -9 6 -23 6 -32 1 -16 1 -16 10 0 11 18 3 48 -12 48 -6
0 -7 -7 -4 -16z"/>
<path d="M8280 6670 c0 -5 5 -10 10 -10 6 0 10 5 10 10 0 6 -4 10 -10 10 -5 0
-10 -4 -10 -10z"/>
<path d="M8245 6640 c-3 -5 1 -10 9 -10 9 0 16 5 16 10 0 6 -4 10 -9 10 -6 0
-13 -4 -16 -10z"/>
<path d="M4745 6628 c-8 -22 10 -133 22 -131 7 1 9 -14 5 -43 -6 -56 14 -77
35 -37 15 30 17 63 3 63 -5 0 -10 26 -10 58 0 36 -3 52 -9 43 -7 -10 -11 -5
-16 18 -7 34 -23 49 -30 29z"/>
<path d="M4927 6559 c7 -7 15 -10 18 -7 3 3 -2 9 -12 12 -14 6 -15 5 -6 -5z"/>
<path d="M4796 6358 c3 -4 -1 -8 -9 -8 -8 0 -17 -8 -19 -18 -4 -15 0 -17 26
-14 48 7 68 54 22 50 -14 -1 -22 -6 -20 -10z"/>
<path d="M5110 6330 c-12 -8 -10 -10 8 -10 13 0 20 4 17 10 -7 12 -6 12 -25 0z"/>
<path d="M4708 6306 c-31 -11 -39 -52 -13 -62 8 -4 15 -10 15 -15 0 -5 -7 -9
-15 -9 -11 0 -15 -11 -15 -36 0 -35 -1 -36 -30 -32 l-30 5 0 -54 c0 -29 5 -53
10 -53 22 0 8 -18 -30 -36 -25 -12 -40 -26 -40 -37 0 -10 5 -15 10 -12 10 6
16 -52 12 -105 -4 -46 9 -150 19 -145 5 4 9 -5 9 -19 0 -15 8 -30 20 -36 12
-6 20 -21 20 -35 0 -15 5 -24 13 -22 8 1 13 -13 15 -40 2 -29 8 -43 18 -43 9
0 14 -11 14 -35 0 -24 5 -35 15 -35 11 0 15 -11 15 -39 0 -21 6 -44 14 -50 8
-7 17 -23 20 -36 4 -14 11 -25 16 -25 6 0 10 -7 10 -16 0 -9 16 -42 35 -74 19
-32 35 -63 35 -69 0 -6 4 -11 9 -11 5 0 13 -10 17 -22 3 -12 13 -28 20 -36 8
-7 14 -19 14 -27 0 -7 7 -15 15 -19 8 -3 15 -17 15 -31 0 -16 6 -25 15 -25 9
0 15 -9 15 -25 0 -16 6 -25 15 -25 9 0 15 -9 15 -25 0 -16 6 -25 15 -25 10 0
15 -11 15 -35 0 -24 5 -35 15 -35 9 0 15 -9 15 -25 0 -14 7 -28 15 -31 8 -4
15 -14 15 -24 0 -10 7 -25 15 -34 8 -8 15 -19 15 -24 0 -5 9 -19 20 -32 11
-13 20 -32 20 -42 0 -11 4 -17 9 -14 10 7 21 -17 21 -45 0 -10 4 -19 10 -19 5
0 12 -11 16 -24 3 -14 12 -27 20 -30 8 -3 14 -15 14 -26 0 -11 7 -20 15 -20 9
0 15 -9 15 -25 0 -14 7 -28 15 -31 8 -4 15 -14 15 -24 0 -10 7 -25 15 -34 8
-8 15 -22 15 -31 0 -8 7 -18 15 -21 8 -4 15 -12 15 -19 0 -8 6 -20 14 -27 7
-8 17 -29 21 -47 4 -18 9 -30 12 -27 7 6 53 -48 53 -63 0 -6 4 -11 10 -11 5 0
12 -11 16 -25 3 -14 12 -25 20 -25 8 0 14 -9 14 -20 0 -11 7 -20 15 -20 9 0
15 -9 15 -24 0 -13 7 -26 15 -30 8 -3 15 -15 15 -27 0 -15 5 -19 15 -15 14 5
21 -16 16 -46 0 -5 5 -8 11 -8 8 0 14 15 15 35 1 21 -3 34 -9 32 -6 -1 -15 9
-19 23 -4 14 -8 21 -9 15 -3 -17 -18 38 -19 73 -1 21 5 35 14 38 14 6 13 8 -1
19 -16 12 -11 41 6 30 4 -2 8 43 9 102 0 58 6 112 11 119 7 7 7 15 2 18 -5 3
-12 37 -16 76 -4 38 -10 69 -14 69 -23 -4 -42 3 -42 14 0 20 -30 77 -51 98
-10 10 -16 25 -13 34 4 8 -1 17 -10 21 -9 3 -16 14 -16 23 0 9 -9 24 -20 34
-11 9 -20 28 -20 41 0 18 -6 25 -22 28 -17 2 -23 10 -23 29 0 14 -8 33 -17 43
-10 10 -18 26 -18 37 0 15 -5 19 -18 15 -20 -7 -52 38 -52 72 0 24 -16 38 -23
20 -3 -7 -6 -2 -6 11 -1 16 -5 21 -16 17 -19 -7 -21 40 -2 47 7 4 3 8 -10 12
-26 8 -31 35 -8 35 8 0 15 5 15 10 0 6 -9 10 -19 10 -20 0 -37 32 -27 49 3 5
-6 16 -20 26 -22 14 -25 23 -22 56 2 25 -1 39 -8 39 -7 0 -10 8 -7 19 3 12 -3
26 -16 37 -12 10 -21 28 -21 41 0 24 -15 39 -25 23 -13 -21 -25 -9 -25 25 0
24 -6 37 -20 45 -15 8 -19 17 -14 34 3 15 -3 40 -16 66 -12 23 -20 51 -17 61
5 19 -15 44 -26 32 -4 -3 -7 1 -7 10 0 8 -6 18 -12 20 -10 4 -9 8 2 16 21 15
30 14 30 -4 0 -8 7 -15 15 -15 20 0 19 10 -2 25 -13 10 -14 16 -7 26 11 14 4
63 -7 57 -14 -7 -39 27 -37 51 1 15 -8 41 -20 58 -23 33 -28 53 -13 53 5 0 14
13 19 29 9 25 8 30 -9 34 -24 6 -24 18 1 44 19 21 19 21 -6 38 -14 9 -28 14
-31 12 -2 -3 -14 4 -25 15 -11 11 -16 23 -12 26 3 4 9 1 11 -6 3 -8 9 -10 16
-3 7 5 21 11 32 15 12 3 9 4 -7 2 -22 -3 -28 1 -28 16 0 11 4 17 9 14 5 -3 14
1 21 8 9 12 7 17 -9 26 -16 8 -21 21 -21 50 0 29 -4 40 -15 40 -9 0 -12 -6 -9
-15 4 -9 -3 -18 -18 -24 -24 -9 -25 -13 -23 -90 1 -76 1 -79 -18 -69 -16 8
-18 17 -13 48 8 48 -3 100 -20 100 -7 0 -14 10 -16 23 -3 20 -6 22 -30 13z
m124 -348 c-13 -13 -24 5 -16 27 7 16 8 16 17 0 6 -11 6 -20 -1 -27z m58 33
c0 -6 -4 -12 -8 -15 -5 -3 -9 1 -9 9 0 8 4 15 9 15 4 0 8 -4 8 -9z m230 -711
c-19 -13 -30 -13 -30 0 0 6 10 10 23 10 18 0 19 -2 7 -10z m255 -470 c3 -5 1
-10 -4 -10 -6 0 -11 5 -11 10 0 6 2 10 4 10 3 0 8 -4 11 -10z m255 -630 c0 -5
-2 -10 -4 -10 -3 0 -8 5 -11 10 -3 6 -1 10 4 10 6 0 11 -4 11 -10z"/>
<path d="M5162 6291 c-10 -6 -10 -10 1 -20 12 -9 27 -10 67 -1 9 1 -33 30 -44
30 -6 0 -17 -4 -24 -9z"/>
<path d="M5310 6188 c0 -14 30 -22 41 -11 7 7 2 12 -15 15 -14 3 -26 1 -26 -4z"/>
<path d="M4620 6176 c0 -2 7 -7 16 -10 8 -3 12 -2 9 4 -6 10 -25 14 -25 6z"/>
<path d="M5352 6161 c-11 -7 -10 -10 3 -15 22 -8 22 -8 22 9 0 17 -6 18 -25 6z"/>
<path d="M5415 6140 c-10 -17 5 -30 33 -29 15 0 21 3 15 6 -7 2 -13 11 -13 19
0 16 -26 19 -35 4z"/>
<path d="M5484 6105 c3 -8 0 -15 -7 -16 -7 0 -1 -6 13 -12 14 -6 28 -15 31
-20 7 -10 49 0 49 12 0 8 -72 51 -85 51 -4 0 -5 -7 -1 -15z"/>
<path d="M8040 6030 c0 -5 9 -10 21 -10 11 0 17 5 14 10 -3 6 -13 10 -21 10
-8 0 -14 -4 -14 -10z"/>
<path d="M8097 5933 c-3 -16 -3 -32 0 -37 8 -12 33 23 33 46 0 29 -27 21 -33
-9z"/>
<path d="M4926 5941 c-4 -7 -5 -15 -2 -18 9 -9 19 4 14 18 -4 11 -6 11 -12 0z"/>
<path d="M6128 5943 c6 -2 18 -2 25 0 6 3 1 5 -13 5 -14 0 -19 -2 -12 -5z"/>
<path d="M4955 5920 c-3 -5 -1 -10 4 -10 6 0 11 5 11 10 0 6 -2 10 -4 10 -3 0
-8 -4 -11 -10z"/>
<path d="M7510 5906 c0 -8 5 -18 10 -21 6 -3 10 3 10 14 0 12 -4 21 -10 21 -5
0 -10 -6 -10 -14z"/>
<path d="M5830 5891 c0 -16 9 -22 47 -31 4 -1 9 3 11 9 2 6 -6 11 -17 11 -14
0 -19 5 -15 15 4 9 0 15 -10 15 -9 0 -16 -8 -16 -19z"/>
<path d="M8001 5834 c0 -11 3 -14 6 -6 3 7 2 16 -1 19 -3 4 -6 -2 -5 -13z"/>
<path d="M5090 5768 c0 -21 5 -28 19 -28 11 0 23 5 26 10 3 6 1 10 -6 10 -6 0
-18 8 -25 18 -12 15 -13 14 -14 -10z"/>
<path d="M8100 5750 c0 -5 5 -10 10 -10 6 0 10 5 10 10 0 6 -4 10 -10 10 -5 0
-10 -4 -10 -10z"/>
<path d="M8140 5534 c-10 -12 -8 -14 14 -14 28 0 35 14 12 23 -8 3 -20 -1 -26
-9z"/>
<path d="M2980 4980 c0 -5 5 -10 10 -10 6 0 10 5 10 10 0 6 -4 10 -10 10 -5 0
-10 -4 -10 -10z"/>
<path d="M3105 4970 c4 -6 11 -8 16 -5 14 9 11 15 -7 15 -8 0 -12 -5 -9 -10z"/>
<path d="M3045 4961 c-20 -4 -26 -9 -17 -14 6 -5 12 -20 12 -35 0 -19 -3 -23
-9 -14 -9 16 -15 -1 -26 -80 -4 -26 -11 -45 -16 -42 -5 3 -9 -9 -9 -26 0 -18
4 -29 10 -25 6 3 10 -1 10 -10 0 -9 -4 -13 -10 -10 -6 4 -10 -17 -10 -55 0
-36 4 -59 9 -55 10 5 22 -45 19 -75 0 -8 0 -43 0 -78 2 -44 6 -61 15 -60 8 2
13 -15 15 -52 2 -35 9 -58 18 -63 8 -4 14 -20 14 -35 0 -15 4 -34 10 -42 8
-12 10 -12 16 3 3 9 12 17 20 17 8 0 14 7 14 15 0 8 7 15 15 15 11 0 15 12 16
43 0 23 3 36 6 30 10 -25 23 -12 23 23 0 21 -4 33 -10 29 -5 -3 -10 -2 -10 4
0 6 11 13 23 17 44 10 28 94 -17 94 -9 0 -16 7 -16 15 0 8 -7 15 -15 15 -11 0
-15 12 -15 50 0 38 4 50 15 50 10 0 15 11 15 35 0 24 5 35 15 35 10 0 15 11
15 35 0 24 -5 35 -15 35 -8 0 -15 7 -15 15 0 9 7 18 15 21 20 8 19 24 -2 40
-17 13 -17 13 0 14 10 0 17 8 17 21 0 13 10 23 30 30 19 7 30 18 30 30 0 14
-7 19 -30 19 -20 0 -30 -5 -30 -15 0 -8 -7 -15 -15 -15 -8 0 -15 6 -15 13 0 7
-17 19 -37 27 -49 19 -44 18 -78 11z"/>
<path d="M10373 4673 c-23 -4 -27 -12 -24 -44 2 -18 -48 -59 -93 -76 -17 -6
-23 -12 -13 -12 14 -1 17 -11 17 -71 0 -40 -4 -70 -10 -70 -5 0 -10 -5 -10
-11 0 -5 5 -7 10 -4 6 3 10 -1 10 -9 0 -10 -6 -13 -15 -10 -12 5 -15 -5 -15
-60 0 -52 -3 -66 -15 -66 -17 0 -20 -21 -6 -36 6 -5 12 -42 15 -83 3 -41 10
-77 16 -81 6 -4 14 -26 17 -49 4 -30 10 -41 19 -37 9 3 14 -2 14 -15 0 -11 -4
-18 -9 -14 -5 3 -12 1 -16 -5 -3 -5 1 -10 9 -10 11 0 16 -9 16 -30 0 -20 5
-30 15 -30 19 0 22 80 3 81 -7 0 2 7 20 15 17 8 32 19 32 26 0 6 3 9 6 5 3 -3
14 3 25 14 13 13 19 33 19 64 0 24 6 48 13 52 19 12 26 105 8 111 -20 7 -11
22 13 22 22 0 26 6 32 45 3 25 4 91 0 145 -6 106 -2 130 20 130 8 0 14 5 14
10 0 6 -16 10 -35 10 -28 0 -35 4 -35 20 0 11 -6 20 -12 20 -9 0 -8 3 2 10 12
7 12 12 -4 29 -11 12 -22 20 -25 20 -3 -1 -16 -4 -28 -6z"/>
<path d="M2981 4494 c0 -11 3 -14 6 -6 3 7 2 16 -1 19 -3 4 -6 -2 -5 -13z"/>
<path d="M5840 4501 c0 -10 36 -21 44 -14 3 3 3 10 0 14 -7 12 -44 12 -44 0z"/>
<path d="M3955 4470 c-3 -5 -30 -10 -60 -10 -29 0 -55 -3 -57 -7 -9 -21 -118
-62 -177 -66 -76 -6 -97 -25 -48 -45 17 -8 41 -22 52 -32 17 -16 38 -20 115
-21 51 -1 87 -5 79 -8 -31 -13 -16 -26 27 -22 41 3 46 0 43 -26 -1 -13 44 -21
89 -15 28 3 42 1 42 -7 0 -6 17 -11 40 -11 22 0 40 5 40 10 0 6 15 10 33 10
24 0 28 3 17 10 -11 7 -4 10 27 10 23 0 43 5 45 10 2 6 40 13 85 17 45 3 80
10 77 14 -12 20 27 7 50 -16 33 -33 76 -34 76 -2 0 19 -12 30 -53 50 -29 15
-60 27 -70 27 -10 0 -15 5 -12 10 4 6 -5 10 -19 10 -17 0 -26 6 -26 16 0 8 -5
12 -10 9 -6 -4 -22 0 -35 9 -13 9 -36 16 -50 16 -14 0 -25 4 -25 10 0 5 -16
12 -35 16 -19 3 -35 10 -35 15 0 5 -34 9 -75 9 -43 0 -75 4 -75 10 0 6 -15 10
-34 10 -19 0 -38 -4 -41 -10z"/>
<path d="M10230 4430 c0 -5 5 -10 10 -10 6 0 10 5 10 10 0 6 -4 10 -10 10 -5
0 -10 -4 -10 -10z"/>
<path d="M9270 4418 c0 -5 -22 -8 -49 -8 -28 0 -52 -4 -55 -9 -3 -4 -51 -12
-106 -15 -55 -4 -100 -12 -100 -17 0 -5 -18 -9 -40 -9 -22 0 -40 -4 -40 -10 0
-6 -29 -10 -66 -10 -45 0 -70 -5 -80 -15 -9 -8 -31 -15 -50 -15 -19 0 -34 -4
-34 -10 0 -5 -16 -10 -35 -10 -19 0 -35 -4 -35 -10 0 -5 -7 -10 -15 -10 -8 0
-15 -6 -15 -13 0 -7 -12 -14 -27 -15 -16 -1 -29 -7 -31 -12 -2 -6 -17 -10 -33
-10 -22 0 -29 -5 -29 -20 0 -11 -7 -23 -15 -26 -18 -7 -16 -54 2 -54 7 0 13 7
13 15 0 8 6 12 14 9 9 -3 17 3 21 15 3 12 11 19 16 16 5 -4 9 -1 9 5 0 7 8 9
20 5 22 -7 63 11 55 24 -10 17 23 31 81 33 32 1 63 7 67 13 6 7 10 6 14 -2 2
-7 11 -13 20 -13 10 0 12 -6 8 -22 -6 -16 -4 -20 8 -15 8 3 20 0 26 -6 8 -8
11 -1 11 26 0 26 4 37 15 37 8 0 15 -4 15 -10 0 -5 11 -20 25 -34 28 -28 60
-25 52 5 -5 17 1 19 45 19 27 0 55 -6 62 -13 8 -8 29 -11 55 -9 36 4 41 7 41
28 0 15 -6 24 -16 24 -10 0 -14 7 -12 23 2 13 9 21 18 19 8 -2 36 -6 62 -9 41
-5 50 -3 66 17 15 19 22 21 39 12 17 -9 22 -9 27 4 3 8 10 13 15 9 5 -3 12 -1
16 5 4 6 -5 10 -22 10 -59 0 -57 18 3 25 71 7 144 26 144 37 0 4 -40 7 -90 6
-49 -2 -90 -6 -90 -10z"/>
<path d="M8960 4175 c0 -8 -6 -12 -13 -9 -8 3 -13 -3 -13 -16 0 -25 41 -28 50
-4 10 27 7 44 -9 44 -8 0 -15 -7 -15 -15z"/>
<path d="M8870 4161 c0 -6 5 -13 10 -16 6 -3 10 1 10 9 0 9 -4 16 -10 16 -5 0
-10 -4 -10 -9z"/>
<path d="M10305 3800 c-3 -5 -1 -10 4 -10 6 0 11 5 11 10 0 6 -2 10 -4 10 -3
0 -8 -4 -11 -10z"/>
<path d="M5274 3630 c-5 -5 -28 -10 -52 -12 -43 -3 -53 -16 -27 -38 10 -9 15
-32 15 -76 0 -53 3 -65 20 -74 11 -6 25 -8 30 -5 6 3 10 -1 10 -9 0 -9 7 -16
15 -16 10 0 15 -11 15 -35 0 -25 4 -35 15 -35 9 0 15 -6 14 -12 -3 -27 2 -38
16 -38 10 0 15 -10 15 -30 0 -18 6 -33 15 -36 8 -3 17 -15 21 -26 5 -16 8 -18
15 -7 7 12 9 11 9 -1 0 -8 9 -21 20 -28 11 -7 20 -19 20 -27 0 -8 5 -15 10
-15 17 0 11 48 -7 55 -16 6 -16 8 -3 18 21 16 23 44 5 51 -8 3 -15 13 -15 23
0 10 -7 27 -15 37 -8 11 -15 36 -15 55 0 27 -3 32 -10 21 -8 -12 -10 -10 -12
10 -1 14 -2 32 -4 40 -1 8 -2 39 -3 68 -1 39 -5 52 -16 52 -8 0 -15 5 -15 10
0 6 -7 10 -15 10 -9 0 -15 9 -15 24 0 17 -7 26 -25 30 -14 4 -23 11 -20 16 8
13 2 13 -11 0z"/>
<path d="M6050 3132 c0 -13 4 -20 10 -17 6 3 13 -1 16 -9 3 -9 12 -16 19 -16
7 0 15 -7 19 -15 3 -8 15 -15 26 -15 11 0 20 -4 20 -10 0 -5 9 -10 20 -10 11
0 20 -7 20 -15 0 -8 7 -15 15 -15 8 0 15 -4 15 -10 0 -5 7 -10 15 -10 8 0 15
-4 15 -10 0 -5 7 -10 15 -10 9 0 18 -7 21 -15 4 -8 13 -15 22 -15 16 0 72 -56
72 -72 0 -5 5 -6 10 -3 6 3 10 1 10 -4 0 -6 9 -11 20 -11 11 0 20 5 20 10 0 6
7 10 15 10 9 0 15 9 15 25 0 14 5 25 12 25 6 0 9 3 5 6 -7 8 17 34 32 34 6 0
11 9 11 20 0 11 7 20 16 20 12 0 14 9 12 38 -3 35 -5 38 -53 51 -27 8 -83 16
-124 18 -49 3 -70 8 -60 14 10 6 2 9 -26 9 -29 0 -36 -3 -25 -10 11 -7 2 -10
-32 -10 -38 0 -46 3 -42 15 5 12 -2 15 -30 15 -23 0 -39 -5 -42 -15 -9 -22
-43 -18 -65 8 l-18 22 -1 -23z"/>
<path d="M6408 3123 c6 -2 18 -2 25 0 6 3 1 5 -13 5 -14 0 -19 -2 -12 -5z"/>
<path d="M6580 3044 c0 -8 5 -12 10 -9 6 3 10 10 10 16 0 5 -4 9 -10 9 -5 0
-10 -7 -10 -16z"/>
<path d="M12436 2555 c4 -8 8 -15 10 -15 2 0 4 7 4 15 0 8 -4 15 -10 15 -5 0
-7 -7 -4 -15z"/>
<path d="M6234 2428 c-4 -6 -2 -14 4 -16 7 -2 9 -9 6 -14 -4 -7 -2 -8 4 -4 14
9 16 33 3 41 -5 3 -13 0 -17 -7z"/>
<path d="M6334 2388 c-3 -11 -4 -22 -1 -25 8 -8 47 7 47 18 0 6 -5 7 -12 3 -7
-5 -9 -2 -6 8 4 9 0 15 -8 15 -7 0 -16 -9 -20 -19z"/>
<path d="M6213 2393 c-23 -8 -15 -79 11 -108 16 -17 27 -22 31 -15 4 6 0 17
-9 23 -9 7 -16 31 -18 58 -2 31 -7 44 -15 42z"/>
<path d="M12396 2375 c-3 -9 -6 -26 -6 -36 0 -11 -4 -18 -9 -14 -12 7 -26 -59
-17 -81 4 -11 -1 -24 -14 -36 -13 -13 -20 -31 -20 -58 0 -21 -5 -40 -10 -42
-6 -2 -13 -40 -17 -86 -3 -45 -10 -82 -14 -82 -5 0 -9 -6 -9 -12 -1 -7 -9 -31
-20 -53 -25 -51 -24 -56 5 -78 36 -26 49 -13 41 40 -4 33 -2 45 9 49 8 3 17
21 21 40 3 18 12 38 20 45 8 7 11 21 8 34 -4 17 1 29 15 42 17 14 21 29 21 85
0 38 4 68 9 68 5 0 11 9 14 20 3 13 0 20 -9 20 -8 0 -14 10 -14 25 0 15 6 25
14 25 10 0 13 13 12 47 -1 47 -18 68 -30 38z"/>
<path d="M808 2363 c-8 -33 3 -53 28 -53 15 0 24 6 24 16 0 8 -4 12 -10 9 -5
-3 -10 0 -10 8 0 8 -6 20 -14 26 -11 9 -14 8 -18 -6z"/>
<path d="M6352 2329 c2 -6 8 -10 13 -10 5 0 11 4 13 10 2 6 -4 11 -13 11 -9 0
-15 -5 -13 -11z"/>
<path d="M811 2287 c-16 -20 -4 -162 15 -178 8 -6 14 -20 14 -31 0 -11 7 -26
15 -34 8 -9 15 -26 15 -40 0 -15 6 -24 15 -24 8 0 15 -7 15 -15 0 -8 7 -15 15
-15 9 0 15 -10 15 -26 0 -14 4 -23 10 -19 6 3 13 -1 16 -9 3 -9 12 -16 20 -16
8 0 13 -3 13 -7 -4 -25 3 -43 16 -43 8 0 15 -7 15 -15 0 -8 7 -15 15 -15 8 0
15 -9 15 -20 0 -11 9 -28 20 -37 11 -10 20 -24 20 -33 1 -11 4 -10 16 5 19 24
16 156 -4 163 -7 2 -12 12 -12 22 0 29 -11 50 -26 50 -8 0 -14 7 -14 15 0 9
-9 15 -24 15 -25 0 -36 16 -36 56 0 15 -6 24 -15 24 -8 0 -15 7 -15 15 0 8 -4
15 -9 15 -5 0 -12 14 -16 30 -4 17 -13 30 -21 30 -9 0 -14 11 -14 33 0 22 -7
36 -20 45 -12 7 -18 17 -15 22 3 6 -1 10 -10 10 -8 0 -19 9 -23 21 -7 18 -10
19 -21 6z"/>
<path d="M6028 2238 c-13 -16 -18 -40 -18 -90 0 -54 -3 -68 -15 -68 -11 0 -15
-11 -15 -40 0 -26 -4 -39 -12 -37 -6 1 -14 -7 -16 -17 -3 -14 0 -17 12 -13 13
5 16 -1 16 -33 0 -27 -4 -39 -12 -37 -9 1 -13 -16 -14 -58 0 -33 -1 -145 -2
-249 -2 -163 -4 -187 -17 -182 -13 5 -15 -12 -15 -114 0 -73 4 -121 11 -125
16 -10 17 -5 21 70 3 47 8 69 16 68 9 -2 12 23 12 87 0 67 4 91 15 97 10 6 15
31 16 95 1 55 6 94 15 105 10 14 13 74 14 266 0 211 2 248 15 253 18 7 20 44
3 44 -7 0 -21 -10 -30 -22z m-51 -440 c-3 -8 -6 -5 -6 6 -1 11 2 17 5 13 3 -3
4 -12 1 -19z m50 -80 c-3 -8 -6 -5 -6 6 -1 11 2 17 5 13 3 -3 4 -12 1 -19z"/>
<path d="M6287 2242 c1 -8 3 -16 3 -18 0 -2 7 -4 15 -4 8 0 15 5 15 10 0 6 -6
10 -14 10 -8 0 -16 3 -19 8 -2 4 -2 1 0 -6z"/>
<path d="M12220 1700 c0 -5 5 -10 10 -10 6 0 10 5 10 10 0 6 -4 10 -10 10 -5
0 -10 -4 -10 -10z"/>
<path d="M1090 1680 c0 -5 5 -10 10 -10 6 0 10 5 10 10 0 6 -4 10 -10 10 -5 0
-10 -4 -10 -10z"/>
<path d="M1035 1510 c-3 -5 -1 -10 4 -10 6 0 11 5 11 10 0 6 -2 10 -4 10 -3 0
-8 -4 -11 -10z"/>
<path d="M12150 1456 c0 -8 4 -17 9 -20 10 -7 23 19 14 28 -11 11 -23 6 -23
-8z"/>
<path d="M847 1426 c-4 -10 -5 -21 -2 -24 9 -9 17 6 13 25 -3 17 -4 17 -11 -1z"/>
<path d="M910 1390 c0 -6 -7 -18 -15 -26 -8 -9 -15 -11 -15 -5 0 6 -8 11 -17
11 -15 0 -16 -2 -3 -10 12 -8 11 -10 -6 -10 -17 0 -20 -5 -16 -25 2 -14 11
-25 18 -25 9 0 14 -12 14 -34 0 -20 6 -36 14 -39 8 -3 16 -21 18 -39 2 -20 8
-32 16 -31 6 2 12 -2 12 -7 0 -5 6 -9 13 -7 8 1 13 -15 15 -50 2 -38 7 -53 18
-53 11 0 14 -17 14 -85 0 -70 3 -85 15 -85 24 0 76 -30 70 -40 -3 -5 -14 -7
-24 -5 -14 2 -20 -4 -24 -21 -4 -21 -1 -23 24 -19 28 5 29 4 29 -38 0 -30 6
-50 20 -65 18 -19 19 -25 9 -44 l-12 -23 -9 26 c-7 20 -15 26 -33 25 -32 -1
-30 -36 2 -36 13 0 24 -4 24 -10 1 -5 2 -16 3 -22 1 -7 11 -13 23 -12 16 0 20
-3 13 -11 -11 -13 5 -43 17 -31 13 13 10 645 -4 654 -6 4 -14 45 -18 92 -4 47
-9 88 -11 92 -6 9 -64 -12 -64 -23 0 -5 -5 -9 -11 -9 -5 0 -9 10 -7 23 3 20
-1 22 -54 25 -38 2 -58 -1 -58 -8z m94 -42 c8 -12 13 -25 10 -30 -7 -11 -53
23 -54 40 0 20 28 14 44 -10z m59 -62 c18 -14 25 -72 7 -61 -6 4 -8 11 -5 16
4 5 -2 12 -12 16 -21 8 -34 24 -27 35 7 11 16 10 37 -6z m42 -355 c3 -5 1 -12
-5 -16 -5 -3 -10 1 -10 9 0 18 6 21 15 7z"/>
<path d="M12426 1362 c-2 -4 4 -9 15 -9 11 -1 17 2 14 8 -7 11 -22 12 -29 1z"/>
<path d="M12379 1346 c-14 -7 -42 -16 -62 -20 -21 -4 -37 -11 -37 -16 0 -6 -7
-10 -16 -10 -8 0 -13 -3 -11 -7 6 -10 -19 -34 -27 -26 -3 4 -6 1 -6 -5 0 -7
-15 -12 -35 -12 -24 0 -35 -5 -35 -15 0 -8 8 -15 18 -16 9 0 1 -5 -18 -11 -19
-5 -39 -15 -43 -21 -5 -7 -6 -2 -2 11 4 13 2 22 -4 22 -6 0 -10 -3 -10 -7 3
-21 -2 -33 -14 -33 -8 0 -22 -9 -32 -20 -10 -11 -28 -20 -40 -20 -26 0 -45
-18 -45 -43 0 -14 -5 -17 -21 -12 -27 9 -39 -8 -39 -57 0 -27 -4 -38 -15 -38
-11 0 -15 -12 -15 -45 0 -33 -4 -45 -15 -45 -12 0 -15 -18 -16 -97 -3 -145 -3
-148 -16 -146 -9 2 -13 -9 -13 -32 0 -23 4 -34 13 -32 6 1 12 -7 12 -18 0 -11
-6 -19 -12 -18 -7 2 -13 -2 -13 -8 0 -6 -7 -9 -15 -5 -8 3 -15 1 -15 -4 0 -6
6 -10 13 -10 8 0 7 -4 -3 -10 -13 -8 -12 -10 3 -10 9 0 17 -7 17 -15 0 -8 -6
-15 -14 -15 -8 0 -17 -15 -20 -35 -4 -20 -11 -33 -16 -30 -4 3 -11 -13 -15
-35 -4 -22 -11 -40 -16 -40 -5 0 -9 -10 -9 -22 0 -34 -11 -68 -20 -63 -8 5
-20 -101 -20 -178 0 -27 -4 -46 -9 -43 -7 5 -21 -15 -21 -30 0 -2 72 -4 161
-4 104 0 158 3 154 10 -3 6 2 10 11 10 10 0 15 3 11 6 -9 9 14 65 24 58 5 -3
9 3 9 14 0 11 9 31 20 45 11 14 20 30 20 36 0 6 7 11 15 11 8 0 15 7 15 15 0
8 7 15 15 15 8 0 15 9 15 20 0 11 7 20 15 20 8 0 15 7 15 15 0 8 7 15 15 15 8
0 15 9 15 21 0 12 4 17 11 14 6 -4 13 2 16 14 3 12 12 21 19 21 8 0 14 6 14
14 0 8 14 20 30 28 17 7 31 16 31 20 1 5 2 11 3 16 2 16 73 92 86 92 6 0 8 5
5 10 -3 6 1 13 11 17 9 3 40 30 69 60 29 29 58 53 64 53 6 0 11 7 11 15 0 8 6
15 14 15 8 0 17 7 20 16 3 8 10 12 16 9 5 -3 10 1 10 9 0 9 7 16 15 16 8 0 15
4 15 9 0 12 47 61 60 61 5 0 10 6 10 14 0 8 7 16 15 20 8 3 15 12 15 21 0 8 7
15 15 15 8 0 15 7 15 15 0 8 7 15 15 15 11 0 15 12 15 45 0 33 -4 45 -15 45
-8 0 -15 -4 -15 -10 0 -5 -7 -10 -15 -10 -8 0 -15 -6 -15 -14 0 -8 -7 -16 -15
-20 -8 -3 -15 -12 -15 -21 0 -8 -7 -15 -15 -15 -9 0 -18 -7 -21 -15 -4 -8 -13
-15 -21 -15 -8 0 -12 -4 -9 -9 7 -10 -38 -61 -54 -61 -5 0 -10 -12 -10 -26 0
-19 -4 -25 -15 -20 -9 3 -15 0 -15 -9 0 -8 -7 -15 -15 -15 -8 0 -15 -7 -15
-15 0 -8 -7 -15 -15 -15 -8 0 -15 -7 -15 -15 0 -8 -6 -14 -12 -13 -7 2 -14 -7
-16 -19 -2 -13 -10 -23 -18 -23 -8 0 -14 -5 -14 -10 0 -6 -13 -24 -30 -40 -16
-16 -30 -34 -30 -40 0 -5 -7 -10 -15 -10 -8 0 -15 -4 -15 -10 0 -5 -7 -10 -15
-10 -8 0 -15 -4 -15 -10 0 -5 -9 -10 -20 -10 -11 0 -20 -6 -20 -13 0 -26 -35
-55 -63 -54 -15 1 -27 6 -27 11 0 4 -7 6 -15 2 -9 -3 -15 0 -15 10 0 12 -6 15
-22 9 -13 -4 -43 -11 -68 -15 -25 -4 -40 -8 -35 -9 6 -1 3 -5 -5 -10 -23 -15
-33 -1 -14 20 16 18 16 19 -14 19 -18 0 -32 5 -32 10 0 6 -7 10 -16 10 -8 0
-12 5 -9 10 9 15 -4 50 -18 47 -6 -1 -13 8 -15 21 -2 16 -8 22 -18 18 -10 -4
-14 2 -14 19 0 14 -4 25 -10 25 -5 0 -10 7 -10 15 0 8 5 15 10 15 6 0 10 -4
10 -10 0 -5 9 -10 20 -10 11 0 20 -4 20 -8 0 -5 7 -9 15 -9 8 0 12 3 10 7 -3
4 11 21 30 39 19 17 35 27 35 21 0 -6 5 -8 10 -5 6 3 10 23 9 43 0 20 -3 31
-6 25 -2 -7 -16 -13 -31 -13 l-26 0 22 20 c12 12 22 30 22 41 0 11 7 30 15 43
9 13 15 28 14 32 -4 21 2 34 14 34 8 0 14 6 14 14 0 20 45 73 66 79 10 3 21
15 24 26 3 12 12 21 19 21 8 0 14 7 14 16 0 10 6 14 15 10 9 -3 15 0 15 9 0 8
7 15 15 15 8 0 15 6 15 13 1 16 35 57 49 57 6 0 11 4 11 9 0 4 15 24 33 43 49
54 67 77 67 87 0 5 4 11 10 13 5 2 6 8 2 15 -6 10 -13 9 -33 -1z m-419 -618
c0 -4 -7 -8 -15 -8 -8 0 -15 -5 -15 -11 0 -8 -4 -8 -14 0 -8 7 -12 20 -9 31 4
16 9 17 29 8 13 -6 24 -15 24 -20z m-52 -218 c11 -19 10 -21 -18 -26 -16 -4
-27 -10 -24 -15 3 -5 -12 -9 -33 -8 -33 0 -35 1 -15 9 12 5 22 18 22 29 0 34
48 42 68 11z"/>
<path d="M12130 1280 c0 -11 4 -20 9 -20 5 0 7 9 4 20 -3 11 -7 20 -9 20 -2 0
-4 -9 -4 -20z"/>
<path d="M11937 1192 c-3 -15 -9 -35 -12 -44 -6 -14 -2 -18 16 -18 36 1 65 26
51 43 -7 8 -9 17 -5 20 3 4 1 7 -5 7 -7 0 -12 -4 -12 -10 0 -5 -5 -10 -11 -10
-6 0 -9 7 -6 15 4 8 2 17 -2 20 -5 2 -11 -8 -14 -23z"/>
<path d="M5920 1050 c0 -91 -3 -110 -15 -110 -12 0 -15 -20 -17 -112 -1 -62
-1 -126 0 -142 2 -16 -5 -40 -14 -54 -13 -20 -14 -26 -3 -33 10 -6 11 -9 2 -9
-10 0 -13 -25 -13 -90 0 -73 -3 -90 -15 -90 -8 0 -15 -9 -15 -21 0 -11 5 -17
10 -14 7 4 10 -14 8 -49 -1 -31 -6 -56 -10 -56 -4 0 -8 -22 -8 -50 0 -38 -4
-50 -15 -50 -9 0 -15 -9 -15 -25 0 -16 6 -25 15 -25 20 0 19 -16 -2 -24 -15
-6 -15 -8 -3 -16 13 -8 12 -13 -3 -39 -9 -16 -17 -32 -17 -35 0 -3 23 -6 50
-6 l50 0 0 70 c0 51 3 69 13 67 9 -1 13 36 15 158 2 125 6 161 17 167 12 7 14
66 15 353 0 303 -1 345 -15 345 -12 0 -15 -18 -15 -110z"/>
<path d="M720 780 c0 -5 5 -10 11 -10 5 0 7 5 4 10 -3 6 -8 10 -11 10 -2 0 -4
-4 -4 -10z"/>
<path d="M960 760 c0 -5 16 -10 35 -10 19 0 35 5 35 10 0 6 -16 10 -35 10 -19
0 -35 -4 -35 -10z"/>
<path d="M813 714 c-3 -8 -1 -25 5 -37 10 -20 11 -18 11 16 1 39 -5 48 -16 21z"/>
<path d="M793 613 c9 -2 23 -2 30 0 6 3 -1 5 -18 5 -16 0 -22 -2 -12 -5z"/>
<path d="M11970 609 c0 -5 5 -7 10 -4 6 3 10 8 10 11 0 2 -4 4 -10 4 -5 0 -10
-5 -10 -11z"/>
<path d="M814 549 c-3 -5 -3 -13 1 -18 3 -5 -4 -16 -15 -24 -11 -7 -23 -29
-26 -47 -4 -19 -14 -35 -25 -37 -20 -6 -35 -33 -18 -33 6 0 9 -8 7 -18 -6 -22
16 -57 30 -48 5 3 9 -4 8 -17 -1 -16 -9 -23 -31 -27 -27 -5 -30 -9 -33 -48 -2
-33 0 -42 12 -42 12 0 16 -10 16 -34 0 -25 5 -36 19 -41 10 -3 25 -20 32 -36
11 -27 10 -33 -4 -41 -9 -5 -17 -16 -17 -23 0 -13 31 -15 191 -15 l191 0 -5
73 c-4 39 -6 84 -7 100 0 16 -5 26 -12 25 -7 -2 -14 7 -16 20 -2 15 2 22 12
22 10 0 16 9 16 25 0 18 -5 25 -19 25 -25 0 -38 20 -20 31 8 5 10 9 5 9 -5 0
-3 7 4 15 10 12 10 15 -3 15 -9 0 -19 -4 -22 -10 -11 -18 -32 -11 -64 23 -23
23 -28 33 -18 35 19 4 29 42 17 57 -6 7 -7 15 -3 19 4 3 -7 3 -24 0 -23 -5
-36 -1 -51 14 -13 13 -28 18 -46 15 -21 -4 -26 -2 -26 15 0 21 -45 38 -56 21z
m46 -79 c0 -5 -9 -10 -19 -10 -11 0 -23 5 -26 10 -4 6 5 10 19 10 14 0 26 -4
26 -10z m100 -35 c0 -14 -5 -25 -11 -25 -5 0 -7 5 -4 11 4 6 -3 13 -16 16 -22
6 -22 7 -3 14 31 12 34 10 34 -16z"/>
<path d="M720 540 c0 -5 5 -10 11 -10 5 0 7 5 4 10 -3 6 -8 10 -11 10 -2 0 -4
-4 -4 -10z"/>
<path d="M687 523 c-4 -3 -7 -15 -7 -25 0 -10 -4 -18 -10 -18 -5 0 -10 -4 -10
-9 0 -5 11 -4 25 2 16 8 25 20 25 35 0 22 -10 29 -23 15z"/>
<path d="M1125 470 c3 -5 8 -10 11 -10 2 0 4 5 4 10 0 6 -5 10 -11 10 -5 0 -7
-4 -4 -10z"/>
<path d="M6730 356 c0 -9 5 -16 10 -16 6 0 10 4 10 9 0 6 -4 13 -10 16 -5 3
-10 -1 -10 -9z"/>
<path d="M6735 287 c-4 -10 -5 -21 -1 -24 10 -10 18 4 13 24 -4 17 -4 17 -12
0z"/>
</g>
</svg>
